<mxfile host="app.diagrams.net" modified="2023-12-29T15:10:46.287Z" agent="Mozilla/5.0 (Macintosh; Intel Mac OS X 10_15_7) AppleWebKit/537.36 (KHTML, like Gecko) Chrome/118.0.0.0 Safari/537.36" etag="j0sNb5-8x0YmDGhdctoG" version="22.1.16" type="device">
  <diagram name="Page-1" id="20XFDq0XdOjlIoFkTkma">
    <mxGraphModel dx="737" dy="584" grid="1" gridSize="10" guides="1" tooltips="1" connect="1" arrows="1" fold="1" page="1" pageScale="1" pageWidth="850" pageHeight="1100" math="0" shadow="0">
      <root>
        <mxCell id="0" />
        <mxCell id="1" parent="0" />
        <mxCell id="TJcAHb-V-maXnbrI-xuS-1" value="&lt;b&gt;&lt;u&gt;food_inflation_data.csv&lt;/u&gt;&lt;/b&gt;" style="swimlane;fontStyle=0;childLayout=stackLayout;horizontal=1;startSize=30;horizontalStack=0;resizeParent=1;resizeParentMax=0;resizeLast=0;collapsible=1;marginBottom=0;whiteSpace=wrap;html=1;" vertex="1" parent="1">
          <mxGeometry x="310" y="240" width="140" height="120" as="geometry" />
        </mxCell>
        <mxCell id="TJcAHb-V-maXnbrI-xuS-2" value="Rice" style="text;strokeColor=#82b366;fillColor=#d5e8d4;align=left;verticalAlign=middle;spacingLeft=4;spacingRight=4;overflow=hidden;points=[[0,0.5],[1,0.5]];portConstraint=eastwest;rotatable=0;whiteSpace=wrap;html=1;gradientColor=#97d077;" vertex="1" parent="TJcAHb-V-maXnbrI-xuS-1">
          <mxGeometry y="30" width="140" height="30" as="geometry" />
        </mxCell>
        <mxCell id="TJcAHb-V-maXnbrI-xuS-3" value="Wheat" style="text;strokeColor=#6c8ebf;fillColor=#dae8fc;align=left;verticalAlign=middle;spacingLeft=4;spacingRight=4;overflow=hidden;points=[[0,0.5],[1,0.5]];portConstraint=eastwest;rotatable=0;whiteSpace=wrap;html=1;gradientColor=#7ea6e0;" vertex="1" parent="TJcAHb-V-maXnbrI-xuS-1">
          <mxGeometry y="60" width="140" height="30" as="geometry" />
        </mxCell>
        <mxCell id="TJcAHb-V-maXnbrI-xuS-4" value="Bread" style="text;strokeColor=#b85450;fillColor=#f8cecc;align=left;verticalAlign=middle;spacingLeft=4;spacingRight=4;overflow=hidden;points=[[0,0.5],[1,0.5]];portConstraint=eastwest;rotatable=0;whiteSpace=wrap;html=1;gradientColor=#ea6b66;" vertex="1" parent="TJcAHb-V-maXnbrI-xuS-1">
          <mxGeometry y="90" width="140" height="30" as="geometry" />
        </mxCell>
        <mxCell id="TJcAHb-V-maXnbrI-xuS-5" value="&lt;h1&gt;Ordered by Product:&lt;/h1&gt;&lt;p&gt;food_inflation_data.csv is created in R program and ordered by the products that are mostly influential in the regions that are spread out in 3 conflicted countries that are listed from the top 5 that I found on wikipedia.&lt;/p&gt;" style="text;html=1;strokeColor=none;fillColor=none;spacing=5;spacingTop=-20;whiteSpace=wrap;overflow=hidden;rounded=0;" vertex="1" parent="1">
          <mxGeometry x="60" y="31.810000000000002" width="250" height="160" as="geometry" />
        </mxCell>
        <mxCell id="TJcAHb-V-maXnbrI-xuS-9" value="&lt;b&gt;Rice = 71 Regions&lt;/b&gt;" style="swimlane;fontStyle=0;childLayout=stackLayout;horizontal=1;startSize=30;horizontalStack=0;resizeParent=1;resizeParentMax=0;resizeLast=0;collapsible=1;marginBottom=0;whiteSpace=wrap;html=1;" vertex="1" parent="1">
          <mxGeometry x="10" y="250" width="140" height="120" as="geometry" />
        </mxCell>
        <mxCell id="TJcAHb-V-maXnbrI-xuS-10" value="Afghanistan" style="text;strokeColor=#d6b656;fillColor=#fff2cc;align=left;verticalAlign=middle;spacingLeft=4;spacingRight=4;overflow=hidden;points=[[0,0.5],[1,0.5]];portConstraint=eastwest;rotatable=0;whiteSpace=wrap;html=1;gradientColor=#ffd966;" vertex="1" parent="TJcAHb-V-maXnbrI-xuS-9">
          <mxGeometry y="30" width="140" height="30" as="geometry" />
        </mxCell>
        <mxCell id="TJcAHb-V-maXnbrI-xuS-11" value="Syrian Arab Republic" style="text;strokeColor=#82b366;fillColor=#d5e8d4;align=left;verticalAlign=middle;spacingLeft=4;spacingRight=4;overflow=hidden;points=[[0,0.5],[1,0.5]];portConstraint=eastwest;rotatable=0;whiteSpace=wrap;html=1;gradientColor=#97d077;" vertex="1" parent="TJcAHb-V-maXnbrI-xuS-9">
          <mxGeometry y="60" width="140" height="30" as="geometry" />
        </mxCell>
        <mxCell id="TJcAHb-V-maXnbrI-xuS-12" value="Yemen, Rep." style="text;strokeColor=#666666;fillColor=#f5f5f5;align=left;verticalAlign=middle;spacingLeft=4;spacingRight=4;overflow=hidden;points=[[0,0.5],[1,0.5]];portConstraint=eastwest;rotatable=0;whiteSpace=wrap;html=1;gradientColor=#b3b3b3;" vertex="1" parent="TJcAHb-V-maXnbrI-xuS-9">
          <mxGeometry y="90" width="140" height="30" as="geometry" />
        </mxCell>
        <mxCell id="TJcAHb-V-maXnbrI-xuS-13" value="" style="shape=image;verticalLabelPosition=bottom;labelBackgroundColor=default;verticalAlign=top;aspect=fixed;imageAspect=0;image=data:image/png,iVBORw0KGgoAAAANSUhEUgAAA+QAAAMYCAYAAABCDS1zAAAKrWlDQ1BJQ0MgUHJvZmlsZQAASImVlwdQU1kXgO97L52ElhCKlNCbIJ0AUkJoARSkg42QBAglxEAQsSOLK7CiqIigIuiqiIJrAcSOKBYWBRWwLsgioqyLBRsq/wOGsLv//P8//5k5c7533rnnnnvn3TvnAUBR5IrFKbAiAKmiDEmIrycjKjqGgR8ECFAECkAfELi8dDErODgQoDJt/y4fugA0Ye9aTOT69/f/VZT4gnQeAFAwynH8dF4qyqdQfckTSzIAQPahfv3lGeIJbkGZJkELRLlnghOmeHiC4yYZAyZjwkLYKNMAIJC5XEkCAGQG6mdk8hLQPGQPlK1EfKEIZTHKbqmpaXyUj6NsgsagPvJEfmbcX/Ik/C1nnCwnl5sg46m1TArBS5guTuGu+D+3439Laop0eg4jVMmJEr8Q1Cqje9aTnBYgY1Hc/KBpFvIn4yc5UeoXPs28dHbMNPO5XgGysSnzA6c5XujDkeXJ4IRNsyDdO3SaJWkhsrniJWzWNHMlM/NKk8Nl/kQBR5Y/OzEscpozhRHzpzk9OTRgJoYt80ukIbL6BSJfz5l5fWRrT03/y3qFHNnYjMQwP9nauTP1C0SsmZzpUbLa+AIv75mYcFm8OMNTNpc4JVgWL0jxlfnTM0NlYzPQD3JmbLBsD5O4/sHTDNggDaSgKgEMEIg+eQGQIcjKmFgIO028QiJMSMxgsNATJmBwRDzL2QwbKxtbACbO69Tn8I4+eQ4h+s0ZX84ZAFw54+Pj52Z8AWcBOFkIAKl7xmcSB4DCbACul/Gkkswp3+RZwgISeg/QgDrQRm8DE2ABbIADcAEewBv4gyAQBqLBEsADiSAVrXw5WAXWgzxQALaAHaAMVID94DA4Bk6ABnAOXAbXwC1wB9wHj0AvGACvwAj4AMYgCMJDFIgKqUM6kCFkDtlATMgN8oYCoRAoGoqFEiARJIVWQRugAqgYKoMqoWroF+gMdBm6AXVAD6A+aAh6C32BEZgM02At2AieAzNhFhwAh8GL4QR4GZwN58Kb4VK4Cj4K18OX4VvwfbgXfgWPIgCRQ+iILmKBMBE2EoTEIPGIBFmD5CMlSBVSizQhrchdpBcZRj5jcBgqhoGxwLhg/DDhGB5mGWYNphBThjmMqce0YO5i+jAjmO9YClYTa451xnKwUdgE7HJsHrYEexB7GnsVex87gP2Aw+HoOGOcI84PF41Lwq3EFeL24Opwl3AduH7cKB6PV8eb413xQXguPgOfh9+FP4q/iO/ED+A/EeQIOgQbgg8hhiAi5BBKCEcIFwidhEHCGFGRaEh0JgYR+cQVxCLiAWIT8TZxgDhGUiIZk1xJYaQk0npSKamWdJX0mPROTk5OT85JboGcUG6dXKnccbnrcn1yn8nKZDMym7yILCVvJh8iXyI/IL+jUChGFA9KDCWDsplSTblCeUr5JE+Vt5TnyPPl18qXy9fLd8q/ViAqGCqwFJYoZCuUKJxUuK0wrEhUNFJkK3IV1yiWK55R7FYcVaIqWSsFKaUqFSodUbqh9EIZr2yk7K3MV85V3q98RbmfilD1qWwqj7qBeoB6lTpAw9GMaRxaEq2AdozWThtRUVaxU4lQyVIpVzmv0ktH6EZ0Dj2FXkQ/Qe+if1HVUmWpClQ3qdaqdqp+VJul5qEmUMtXq1O7r/ZFnaHurZ6svlW9Qf2JBkbDTGOBxnKNvRpXNYZn0Wa5zOLNyp91YtZDTVjTTDNEc6Xmfs02zVEtbS1fLbHWLq0rWsPadG0P7STt7doXtId0qDpuOkKd7ToXdV4yVBgsRgqjlNHCGNHV1PXTlepW6rbrjukZ64Xr5ejV6T3RJ+kz9eP1t+s3648Y6BjMM1hlUGPw0JBoyDRMNNxp2Gr40cjYKNJoo1GD0QtjNWOOcbZxjfFjE4qJu8kykyqTe6Y4U6Zpsuke0ztmsJm9WaJZudltc9jcwVxovse8YzZ2ttNs0eyq2d0WZAuWRaZFjUWfJd0y0DLHssHy9RyDOTFzts5pnfPdyt4qxeqA1SNrZWt/6xzrJuu3NmY2PJtym3u2FFsf27W2jbZv7MztBHZ77Xrsqfbz7DfaN9t/c3B0kDjUOgw5GjjGOu527GbSmMHMQuZ1J6yTp9Nap3NOn50dnDOcTzj/6WLhkuxyxOXFXOO5grkH5va76rlyXStde90YbrFu+9x63XXdue5V7s889D34Hgc9BlmmrCTWUdZrTytPiedpz49sZ/Zq9iUvxMvXK9+r3VvZO9y7zPupj55Pgk+Nz4ivve9K30t+WL8Av61+3RwtDo9TzRnxd/Rf7d8SQA4IDSgLeBZoFigJbJoHz/Oft23e4/mG80XzG4JAECdoW9CTYOPgZcFnF+AWBC8oX/A8xDpkVUhrKDV0aeiR0A9hnmFFYY/CTcKl4c0RChGLIqojPkZ6RRZH9kbNiVoddStaI1oY3RiDj4mIORgzutB74Y6FA4vsF+Ut6lpsvDhr8Y0lGktSlpxfqrCUu/RkLDY2MvZI7FduELeKOxrHidsdN8Jj83byXvE9+Nv5QwJXQbFgMN41vjj+RYJrwraEoUT3xJLEYSFbWCZ8k+SXVJH0MTko+VDyeEpkSl0qITU29YxIWZQsaknTTstK6xCbi/PEvcucl+1YNiIJkBxMh9IXpzdm0NDGqE1qIv1B2pfpllme+Wl5xPKTWUpZoqy2FWYrNq0YzPbJ/nklZiVvZfMq3VXrV/WtZq2uXAOtiVvTvFZ/be7agXW+6w6vJ61PXv9rjlVOcc77DZEbmnK1ctfl9v/g+0NNnnyeJK97o8vGih8xPwp/bN9ku2nXpu/5/PybBVYFJQVfC3mFN3+y/qn0p/HN8ZvbixyK9m7BbRFt6drqvvVwsVJxdnH/tnnb6rcztudvf79j6Y4bJXYlFTtJO6U7e0sDSxt3GezasutrWWLZ/XLP8rrdmrs37f64h7+nc6/H3toKrYqCii/7hPt6Kn0r66uMqkr24/Zn7n9+IOJA68/Mn6sPahwsOPjtkOhQ7+GQwy3VjtXVRzSPFNXANdKaoaOLjt455nWssdaitrKOXldwHByXHn/5S+wvXScCTjSfZJ6sPWV4avdp6un8eqh+Rf1IQ2JDb2N0Y8cZ/zPNTS5Np89anj10Tvdc+XmV80UXSBdyL4xfzL44ekl8afhywuX+5qXNj65EXbnXsqCl/WrA1evXfK5daWW1Xrzuev3cDecbZ24ybzbccrhV32bfdvpX+19Ptzu01992vN14x+lOU8fcjgud7p2X73rdvXaPc+/W/fn3O7rCu3q6F3X39vB7XjxIefDmYebDsUfrHmMf5z9RfFLyVPNp1W+mv9X1OvSe7/Pqa3sW+uxRP6//1e/pv38dyH1OeV4yqDNY/cLmxbkhn6E7Lxe+HHglfjU2nPeH0h+7X5u8PvWnx59tI1EjA28kb8bfFr5Tf3fovd375tHg0acfUj+Mfcz/pP7p8Gfm59YvkV8Gx5Z/xX8t/Wb6rel7wPfH46nj42KuhDvZCiCowvHxALw9BAAlGgDqHbR/WDjVT08KNPUPMEngP/FUzz0pDgDUomaiLWJfAuA4qkaoyqPPEy1RmAeAbW1lOt37TvbpE4JD/1j22U1QJz1rHfiHTPXwf6n7nxZMZJ0c/jf7Lwt4BlmQLjEfAAAAimVYSWZNTQAqAAAACAAEARoABQAAAAEAAAA+ARsABQAAAAEAAABGASgAAwAAAAEAAgAAh2kABAAAAAEAAABOAAAAAAAAAJAAAAABAAAAkAAAAAEAA5KGAAcAAAASAAAAeKACAAQAAAABAAAD5KADAAQAAAABAAADGAAAAABBU0NJSQAAAFNjcmVlbnNob3QB7CvMAAAACXBIWXMAABYlAAAWJQFJUiTwAAAB1mlUWHRYTUw6Y29tLmFkb2JlLnhtcAAAAAAAPHg6eG1wbWV0YSB4bWxuczp4PSJhZG9iZTpuczptZXRhLyIgeDp4bXB0az0iWE1QIENvcmUgNi4wLjAiPgogICA8cmRmOlJERiB4bWxuczpyZGY9Imh0dHA6Ly93d3cudzMub3JnLzE5OTkvMDIvMjItcmRmLXN5bnRheC1ucyMiPgogICAgICA8cmRmOkRlc2NyaXB0aW9uIHJkZjphYm91dD0iIgogICAgICAgICAgICB4bWxuczpleGlmPSJodHRwOi8vbnMuYWRvYmUuY29tL2V4aWYvMS4wLyI+CiAgICAgICAgIDxleGlmOlBpeGVsWURpbWVuc2lvbj43OTI8L2V4aWY6UGl4ZWxZRGltZW5zaW9uPgogICAgICAgICA8ZXhpZjpQaXhlbFhEaW1lbnNpb24+OTk2PC9leGlmOlBpeGVsWERpbWVuc2lvbj4KICAgICAgICAgPGV4aWY6VXNlckNvbW1lbnQ+U2NyZWVuc2hvdDwvZXhpZjpVc2VyQ29tbWVudD4KICAgICAgPC9yZGY6RGVzY3JpcHRpb24+CiAgIDwvcmRmOlJERj4KPC94OnhtcG1ldGE+Cm/WTn4AAAAcaURPVAAAAAIAAAAAAAABjAAAACgAAAGMAAABjAAAb7ObLyFAAABAAElEQVR4AezdB7gcVdnA8ffWBNIICSQkQCAkQOhNuvQqTRBEEFHAD0X4/FRQFESUXkQ6iPSOFKVKld57CRBKCAmdtFty+70733kXZpm7d3fv7O7M7pyZ/zxPsm3mnPf8zuzefXfOnKlxzCIsCCCAAAIIIIAAAggggAACCCBQUYEaEvKKelMZAggggAACCCCAAAIIIIAAAmkBEnJ2BAQQQAABBBBAAAEEEEAAAQSqIEBCXgV0qkQAAQQQQAABBBBAAAEEEECAhJx9AAEEEEAAAQQQQAABBBBAAIEqCJCQVwGdKhFAAAEEEEAAAQQQQAABBBAgIWcfQAABBBBAAAEEEEAAAQQQQKAKAiTkVUCnSgQQQAABBBBAAAEEEEAAAQRIyNkHEEAAAQQQQAABBBBAAAEEEKiCAAl5FdCpEgEEEEAAAQQQQAABBBBAAAEScvYBBBBAAAEEEEAAAQQQQAABBKogQEJeBXSqRAABBBBAAAEEEEAAAQQQQICEnH0AAQQQQAABBBBAAAEEEEAAgSoIkJBXAZ0qEUAAAQQQQAABBBBAAAEEECAhZx9AAAEEEEAAAQQQQAABBBBAoAoCJORVQKdKBBBAAAEEEEAAAQQQQAABBEjI2QcQQAABBBBAAAEEEEAAAQQQqILAoAl5d3e3zJw5M7DQFltsMVlhhRUCK6+aBYVp88knn0hLS0u6ecsss4wsscQS1WyqdXW3tbXJnDlzBo27trZWGhsbZejQoTJ27FhpaGgYdBubVkilUvLOO+9kQl511VWlpqYm85g7/gU+/vhjaW1tTW8wYcIEGTVqlP+Nq7xmR0eHfPjhh76jGDJkiAwfPjz9b/HFF/e9XZRX9H6mjh8/XkaPHh3lcAONzXEceeP11+XD2bPlo48+ks8++0yWWmopWXHFFWX55ZcX/VzQz0AWBBBAAAEEEKiCgPlDXXB57733HBNWYP+22267gvXZ9GKYNv/zP/+TMb/xxhttYolErE8++WTGr5j9d4cddnBuuukmx/wYEol2lBtEe3t7P4eurq5yi6z49g888EDF68xV4U9+8pOM5c0335xrlcg+98orr2RiL+b9oOuussoqzhFHHOE8//zzkW2fn8AOO+ywjME111zjZxPr15k7d65z0UUXOWussUam7bn6f+LEic5ll13mmB9urG9zWA2IyudQWO2jXAQQQACB6gnIYFWHmXQOVnfUXw/ThoS8vN4vNSF3v6yao+bObbfdVl4QEdja5oT8gw8+cPbaay/HHLmLgKTjJDUhd98TenvkkUc6fX19keiPYoNIWkL+0EMPOUsuuWTBRNzbt3p/ueWWc15++eViaWO9ftQ+h2KNTeMQQACBhAoMOmRdh/mZ5ND8rc6/mD/80tPTk15Bh77pMLh8y+qrry5nnnlmvpetej5Mm0MPPVQuvfTStIc5Qi4/+MEPrLKpdrBPPfWUbL755pkwzJFvqauryzx275j3vXR2dkpzc7O88cYb0tvb676UXv/ZZ5+VDTbYIPOcbXd0qLJ3yLE5Qp4eoh/1dixYsECWXnppMclfeiittqPay0EHHSRXXXVVOgxzhFz22Wefaofku/5XX31V1l133cz6v/71r2XYsGGZx9l3dGi+DnE3R9YHnPpx2mmnydFHH529SeQf/+IXv5CLL744Hac5Qi4/+tGPIh9zKQHqZ9qpp54qxx57bL/Nd9llF9lxxx1l0qRJokP2582bJ7NmzRK1MKMfMuvq6VFPP/20TJs2LfNcUu9E8XMoqX1BuxFAAIFYCwTxQ4RJsjO/wuuwN5ZvBEq14Qj5N4al3Ms+Qm7OKR+0mEWLFjkmUcnsy+aN75gvro754jrotlFdwdYj5F988UWmHzhCXv7elT1kXYcy+1nMD1TOrbfe6phz5jP9YeYgcMz8DH42j9Q6L730knPnnXem/3344axIxRZkMOZHo0xf6WfY1ltv7bzwwgt5q9ARD+qio4J0ff2n/W1+cM67TVJeiOLnUFLsaScCCCCQJIFBh6z7wSg16fRTtu3rlGpDQl5ez5eSkLs13nDDDZkvpvrl9Pbbb3dfsu6WhDy4LovTkHW/Cbmr98wzzziaiLsJ28knn+y+xG2EBPQ0KjMxZaafzFFxR39o9LPoEHdvHx9zzDF+Nov1OiTkse5eGocAAghERoCEPOSuICEPGThP8eUk5DrxmRnmnflSa/MXUxLyPDtICU8nOSFXrt122y3znthjjz1KEGSTsAV23nnnTB9NnjzZ8TMyyBvTcccdl9leR6aYIdvelxN3n4Q8cV1OgxFAAIGqCAx6Drk5IjLoYmZwlTfffDO9nhmyLocccsig2+RbQc9rmz59uphf+tP/xo0bJ6uttpqYmX7Tl0vTy1TlW95//31pampKv7zmmmuKXrpHz21/+6235KWXX07HqJcrmjp1qmy//fYVucxLqTa5ziHXS1jpOX96rrOZeCd92SU9v3mdddYZ9BJM6qnnSeui55Lq+dR6Oaz7779fvvzyS1GvXXfdNed5pSapS6/79ttvp/tGzzHUduk5hno+YqE+SVeY9V/Q5WUVn36YfQ65XgbNey51rm28zx188MFy5ZVXpp/Sc9GfeOIJ78vpfbNUTy2onP28XyDmgZ4frOeAmsmH0pdu22ijjdL7xIgRI8TPOeS6H7iX8zJf4sVMBJVdReax7oO677nLeuutV7D/zdE5+e9//5uOTS+3pJeW0zkm1l577fT72i3HvZ0/f356H9fbnXbaKf10fX29mCO07iqZ/TfzxNd39DPodXNpJ32PLFy4MP0+X3nllWWllVaSZZddtuzLveU6h1zPydfPKzXRy0OaH+DS9vp5pZfTy7W4bdTX9L2jhn4Wfd9rfbroXB16WTK/S/Y55OYIebov/G6v65lkTU466aT0JtpObXehJej3+WuvvSYvvvhiun/1s/1b3/pW2lrPh9ZFz3nX95Uu+tmUfY68vj/0nGBd9FJfOkdBvqXc96f3b5Hu6+7lFPVyY3pevhlCnn5urbXWSn+WBnEp0NmzPzR/I7+Zv+X666+X/fffP18Tcz6vl/ZTG/NtJO33z3/+U/Tc80JLOVZBf/YE5e6+R0v5HCpkxWsIIIAAAgjkFAjiZ4BSjwJ769YjeX/729/6ncdmAs78Wq/39ZJp5kuvd7N+973DvM2Xf+ett95y9HIu2eXoYz1HziRc/bYP40GpNt626GXPzBeD9IzTudqiz333u991zJe9vE344Q9/mHEwiaRz7rnnZh67ZZpkacDlvvQSYN6jxe667q0ekTFf4vLWm/1C0OVll+8+LucIuZahQ3LdNpov926xmdtSPYPYz90gTALqmKQ1E6cbr97q0FMdeq/1eZ/Xo//Zy5577plZ5z//+U/2y/0eZ5eX7wicPv+HP/yh4L6jhu+++26/8v/1r39lYvHG7b1vfnTrt41J1BwdmutdJ/v+pptu6pgfafptV+yD7CPkOjw43+WkzA+JzuOPP56zCpM49otVyxlsMUlPZjixvh/zuecrp9RzyL3leY3Nj3felwbcD/J9rvu598hvdt+aycsc88Nrv/kfdJ/IXvzMsh7U+9P7+W1+8Ex/fpsfgfv1u7cdZsK5ovs0u33nnnNOpnzzY4TT3d2dvYqvx+ZHWkfNdf6AQksQVkF/9gTlXsrnUCErXkMAAQQQQKCQQCSGrM+ePduZMmVK5suE+0XFHOEb8JyeH3fFFVfkbJP3j7FORGSO5Ga218u5mKPJmcduHX/84x9DvYxPEAn5//3f/znmqOKA2N02uLc6RFGT7VyLN4G86667cpbl/ZKtQxUPOOCAAeupqTmq1+957ac77rgjV7WZ54IuL1NwnjvlJuTmyFKmjWY25gG1FOupBQS1n2tZmlzql263793b7B9PdP92X9PbSiTk2k5z9LJfvVq37jvmaHe/50eNGuV4E9JivwibI2IDLu2kdZgjjgP2U/2R4sEHH1S+khZvQm5GsDgau2ur74lc/XGOSZLMqIIB9el7zd32jDPOGPB69hP6meeu/6tf/Sr75UEfl5uQmxEHmR8ENA5NgnMtQb/PzWzfOV2zrTWx0/epa1RKQh7k+9P7t8iMTnDMqKRMbG6M2be6TktLSy5WX89tvNFGmTr0x+swl6CswkzIy3Ev9nMoTGvKRgABBBCIv0DVE3Kd4dV79MNNuPUPvn6RNUNpHf1StuWWW2a+bOgXmUceeWRA73i/BLlfdvTI2IwZMzLr6hfL3/3ud/3Kuu666zKvB30niITcbYv+oGAu25M+eqFHyPQoxs9+9rN+bTnhhBNyNsGbQLqjBjSR1qNGmnyqu7mUU2bbAw88MFOuJjjnn3++8+mnn6Zf16TuNfMlc7/99suso8mOjkjItwRdXr563OfLSch1dIX3C3+uhKlYzyD3cz3i5o3PnIKRfj/oe0XrMcNAnaOOOirTN+7+o7dhJ+R6VM0M8c/UbU6NcC655BJHTfX9rPHpBGEbbrhhZh0z/DqTiOgEVDoDts4K7cat+6Y+5/7TMtzFDPfOrKdHGfWawW4CrOuZofzOJptskllHYyt18SbkbmyaROnnkzk1IN02c1qH4903dD39ASx70R8M3TLM8PZMzNnruY+32GKLzPrPPfec+7Tv23IScp1te5tttsnUr3Hnm7U7yPe5nr/r3c/1B0edeEx/dNQ+1tFSJ554Yr+4XNNiE3LdV4L6O6Sd4v1bpCOPNC7dV+6+++70D3M64um+++7r9xmq6+T7sdlPR3tnSderRYS1BGkVZkJejnuxn0NhWVMuAggggEAyBKqekOuXdfdLlB7F1i+0uRZNJI444ojMujqMWL8EexfvlyAtUychyje08+yzz86UpcNLs4fBesst535QCbk5DzE97DFXLN6k3JwLnmuVAUmCuS63Y66/nVlXhx+6yZo3mdVkKF+irV/MvF+I1TvXEnR5uerIfs5bp+4L+faD7O102L/auPukHvn0HsF1189Ougp56jZB7ud6hNSNTxNb/XKfa9FLELrrubduH3vXD/JL8T/+8Y9MnZpMmfOevVVl7usQbE2w3Lh0iLN38TOZkp4q4W6/1VZb5R3pYs4rz6yn6+f7jPHWn+t+dkKuR7lzHdHU94UO13dj00Qse/iv7o/e0Qz5ElyNQ4f1u2Xp5577g0OuGPM9l52Q68gC/czL9U/3J/1BVGPSHwD189GtX2/1x55ci/c9F8TnxuGHH56pV39Yzbef33vvvZn13DiLTciDfH+qTfbfoh/84Ac5h5Dr+9E7WZ6ZDyQX7aDP6Y8Ubtv1Vt+HYS1BWgX52aPtDdrdz+dQWM6UiwACCCCQHIGqJuR6pM87hNVMQlNQXo8Aer8calLtXbL/GOdLJHUb/SLkHQYe1lHyIBJyTWwKXfdXj4h6v4zlusyNN4HUL8uzZs3y0mXua+LgHW58+eWXZ17LdUfX14TDrV+P+niXoMvzll3ovjc50Nj0SKkmZtn/dFijHnW79tprnSOPPNLRI7puW/T2tNNOy1mNX0/dOMj9XBNAHY3gxvjAAw/kjM990nu0WrcJOyH3nlN9+umnu2HkvNX3nNuO7B9z/HwR1n3N3V6T5UKLJsj77LNPOlE2E7AVWjXva9kJefb5794N9bPKPUKnMeoQ2OzFe817HbWTbzn11FMz7cz+zMu3Tfbz2Qm561bsrY5CyPX5EvT7XH+w8cY22Pn/2Z/9xSTkQb4/XXdvPPo3Tn/gyLfoSCdvW3XfKXbRHw29ZTySYwRZsWXmWj9oqzAT8iDc/XwO5XLiOQQQQAABBIoRqGpCrpMeuV8i9MiPn0lovEf9dJIc7+L9EmRmRPa+lPO+tywdfh3GEkRCrsNACy2aZLmOeusOLfdu400gdfhpvkV/xHDL0qPD3qPo+bbxHjHJPr816PLyxZD9fHZC7rapmFs96qojB3Itfj112yD3c+/RQB2urUdjCy3e9bXtYSbk3qRAh8/q6SGFFj06q6dCaGKdPQrBzxdh7+Ro+iOTmc29UHVlv+ZNyH/+858PWp5OUunub3rOefbiHZZvZrbP2Tfav94fDgv9MJddvvdxuQm5HqHO/rHNW37Q73M9fca104kLB1t0+Lq7vt4Wk5AH+f504/T+LdKj44UWnZDOG3uuz+9C2+trOhLFW0au9g9Whp/Xg7YKMyEPwt3P55AfN9ZBAAEEEECgkEBVE3LvREX/+7//WyjOzGveL346SZR38X4J8nPEW4+aul9idPhoGEsQCbl+sR9scc8L1/bkOnLnTSD1KFe+RWfZdk38Tgyk59C622R/eQ66vHxxZz9fTkKuk3WZyzsV/DHCr6fGFeR+/qc//Slj7ec9o0mx2zd6G2ZCrsPO3br0vO1yFr9fhL3vL61br4+tozqyE/xyYnG39Sbkg43m0W0effTRjMdmm23mFpO51aHn3hEFuUY76JFh1zR7FEGmIB93shNy7Z8tzbwc7j+dn8L7GaJ16g9yuu/mGyrurTbo97nu2267//KXv3iryntff9Rwt8mVkOabZT3I96cbnPdvkY7OGGzRa367sRc6mp6vHE3i3e31VhPnMJagrcJMyINw9/s5FIY1ZSKAAAIIJEegqgm5d3K1s846y5d69rly5nq6me28X4L8DNnTiaa8X2L8nmecqdDHHW/CoEfk/S7etuiXoMEWnVXabYsOYc9evAlkoWGvF1xwQaYc/ZFCJ9wa7J/3CJ65JnC/qoMur1/hBR5kJ+R6vq8ma9n/9AuhjkD45S9/6eiM2Lrf+NkP/HpqiEHu53qk1e3nwYaEuzzeyZ7CTMjPO++8TGzqU87i94uwTnDmTcRcG73VKzccffTR6VMScrW72Pi8Cfljjz026ObeU0k04cp17rfX7JBDDhlQpjcx1YngSl2yE3Lv56a3TD2FQ98jrqPammtRe1fJeT/o97k3UbvS5+Up9ccFN+5iEvIg358ujvfzW8/DH2zx7sM6eWGxi+7fbtv1drCrXhRbvrt+0Fbefg7ikotBu/v9HHJ9uEUAAQQQQKAUgaom5N5L/3hn+B6sId7LoXnPB/X+Mc51lDi73OwvMZqgB70EkZDrdcgHW4pJyG+55Za8xXknDPN+wSvmvneiq6DLyxt41gvZCbmfJDuriIIPvQl5IU8tJMj9fPfdd8988dbz3v0sOlGU23+5EtOgvhQfd9xxmXr8HJ0qFHsxX4R1gjLvvAduW723OppGJyD0c1pMvri8CbmfI/DZPx7qedHZi85g7sap57zqNu7infhNfxzLde62u+5gt34Tci1H9xHvFRQ0vuxJ97LrC/p97r2E12CJmhuLd4b3YhLyIN+fbizev0V+Pr/LTci1Xv0x1N2X9MfFMJagrYL67HHbGrR7MZ9DbgzcIoAAAgggUKxAVRPyvffeO/MFwm9yoedU6lBK94uHDmF3F+8fYz8JuV4z1y1Hb3N9YXbLLvU2igl5rgmm3PbpkWLXRGfw1nNli/3nTSqCLs+Nc7DbSibkhTw1ziD3c29Zg0245xrp8GS3T8tNyDVJdMvSW+8PHd7Jx37zm9+41Zd0W8oXYf1x7s9//rPjvRSaN1a9v+OOOzpadimLNyH3fu7kK8vbBp2IT88VzrV4+9Sb+P773//OWOv7qJylmIRc69H9RK1cP/3M1VN88i1Bv8+9Pzz5Of1I4/Imi8Uk5F7/IP4OaSzev0WVSsi9V9vQS7iVuujRdZ1wUPc//cHIuwRtVUxCXuizx40xaHfve1hHubAggAACCCAQhkBVE/Jjjjkm84Xv5JNP9tU+vSyV+yVRb71frr1/jPX8zcEW7/no+oV5sAmyBisv1+u2JeQ6yZbr6+cc5Vxt9j4XdHnesgvdj1JCHuR+7k18jj/++EIEmdf0nHi3TwdLyO+8887Mdrnu6CzLbll6603IveeQ64zm5SzlfhHWS6JpPDq5o/f8XI251P3am5APNuu3tl2Hf7tWeq54vkXN3fV0uLi7qKH7vF67vZyl2IRc61JDHVngxqBHYPW5XEvQ73Pv0Gi/p2bo9dzdWItJyIN8f7o23r9FlUrINZF2269/z7wjldy4/Nx6L/uok/l5l6CtvAl5OZ89boxBu5f7OeTGxS0CCCCAAAKFBKqakHsniNE/pH6WF198sd+XDm+C4f1jfMMNNwxanF7uyv0Ck+/63YMWMsgKtiXk3smZ9Ah5uUvQ5fmNJ0oJeZD7uc614O6zmiAOtmQPm/a+X9xtvYnfbbfd5j6d81ZHnrj16603IX/22Wczr+lRaj+L/hCnbdJh/96RFUF+EdZydZSHG7dOXpbrfO7B4vUm5IM5aVn33HNPps599903b/F6JQM38dVESkfuaDLljgTSRLPcHwtLScg1YO0X101vt95665yxBP0+917P3s/fBjVUOzfWYhLyIN+fbid7/xZVKiHX/dxr4HdeFjdmvdUJ5VxDvc0enRC0VVCfPW4bgnYP8nPIjZFbBBBAAAEEsgWqmpDrBFruH389ijfYZZI0+N///veZbbJnHfb+MT7ggAOy2zrgsc427tbvdybfAYUM8oRtCXn2qAE/59Vr4qEzsuuQyXPPPbefSNDl9Su8wIMoJeRB7ufexErnUhjsPeO9Vrfu67kS8h/96EeZ98Gll15aQNVJT/Dlvmf01puQe2d61sRgsNmivdea1suWecvy80VYJ/vSfU6H5OvkboUWvbazN1nxcw54dnnehPzggw/OfnnAY+/6g41m8H6uabLvTeZLSayyg/HuN9pv+SZ1y95OH+vlo7x9nmtyyqDf597RBXpuvY6MKrTovuCNsZiEPMj3pxuj929RpRJyrVvnbnAddDLHfCMa3Di9t/qjjzdB1nkLsq+JHrRVUJ89bjuCdvfzOeTWzS0CCCCAAAKlClQ1IdejGjqDt/sF4pRTTinYDk0O3aNGus0111zTb33vH2N9ffr06f1e9z744IMP+n1B1yPvYSy2JeT6pUyvv+32yf7771+Qpbe3t985u3/84x/7rR90ef0KL/AgSgl5kPu5HtmdPHlypn8KDedVe+/kWNqnuRJy7/BgPQ8339FjPQKnl8dy9w299SbR2h3ec3+PPPLIAj3kOJrYuWXpF3Pvotcod1/TRDrX4k0+dChtoUVjd8vTW/2iXeziTbA1SSz0g8Obb76ZqU8/swabOfs1z/B2rcf7Y6Feb73cpZyEXM8jHjZsWKY9egpAdqIXxvtcRxW4fab7aL5Fk8blllsus65uU0xCHuT7043R+7eokgm5/kC31FJLZSzWXntts+/5239OOOGEzHZqqJdYzF6Ctgrys0djDdrdz+dQthGPEUAAAQQQKFagqgm5BqvX3nW/dOmXXO+kRt7G6BfALT2XtdFLGumXbO/i/WOsZer5b9mT0uj6erRliy22yNRb7iWavDFk37ctIdf4vUen1PHMM890NPHOXjRx857TrOvOmjUre7XAyxtQQY4nopSQa3hB7uc6iZz7ntEjy3ffffcAAe0vneDMXc+9zZWQ33///f3Wy3W6h27nnTTLLS87Idcjpe6RaE1E8w3t1vW8l2PTI/neRb/4u3Xora6fvXiHyGudTzzxRPYqmcc6w7pbnp6Kke9Hh8wGOe54E3ItS4eS5/p80UTd+8OF9oOfxd1GXdwh7LvssoufTQddp5yEXAv3DlXWtn//+98fUGfQnxtvvPFGps+0Tp0oUPcL76KnUOSaxK+YhFzLC/L9qeV5/xZVMiHXur1zOajbuHHjHI2hvb1dXx6w6GiR7Fn19b2e67NCNw7SKsjPHo0taHc/n0NaLwsCCCCAAALlCFQ9IdfgvcPk9AuEDgfVL/Jvv/228/jjjzvnmku4eC8Lo1++X3jhhQHt9v4x1nL0n05EdMkllzh6BFz//f3vf3f0HFL3dR0qn320Z0DBZTxhY0KuzdUvv66R3m6zzTaOJmr6pVuTI52B1/ujhq6jtvmWoMvLV4/7fNQSco0rqP1cy9KEyNs/ejRavyjre0bfO+6Ran2veCc1y/UlW5N371H3urq6dPk6AkUnWtIZl93L6umtmzhq/dkJucbmPeql6xx22GHpcvS63DoZms7GrnW48ec7+unWqeuNHTvW0aPoOmJDJ5bTRY/K6mO3HG2rxvrwww87mqjpUWpN9L1W+iPBI+ZUmVIWb0LuHjGeOnVq+gcrHTKvn0kXXnhhOlY3Jv380aNsfhbvedPu9sVcDrJQHeUm5GqtnwFuXHqrnwHZS9Dv87PPPrtfnbofaH8eddRR6R9o3RFTelRYf9B143v99dezQ0vvh+7r2aOrdOUg35/ev0WVTsi1LVdmDeHXdqudzqVwxhlnOLqvHX300Y6e9qXvG9dFb9ddd91B99mgrIL+7AnDfbDPIfVmQQABBBBAoByBSCTk+qVevxx4vxTku6/JdL4Zjr1/jPULmzfJyFWefpn2c3m0coBtTcj1es1//etfB3xZy+Woz5122mkFmYIur2Bl5sUoJuRB7efadj3apfMk5OsPfV6TXk1I9Yiwu16uhFzLe+yxx/olku763lud+FBPG/EmwbkScq1DJ2vzbpvvviZX+WLyTmDn3V771l10uLK3fd71su9PmDAh5w95blmD3XoTcr2KgyYu2XV4H+upH3PmzBms2Mzr+kODNznSH1Kyz+HNrFzknXITcq1uxowZ/U4Z0iOv8+fP7xdJGO9zHQHiHU3hNdb7+sOg/qjq/dFWT0nKXvSHIXfbXAl5kO9P79+iaiTk2nZ1c0dauO0e7FbjHux8fS07SKsgP3vCcPfzOaQmLAgggAACCJQqEImE3A1eh5xuttlm/b6Uul8g9Mu0nmPuHh1zt/HeZv8x1omLdCie98iJlqdHxU866aQBXya9ZQV139aE3G2/noev17TVodFuX3hvNTnLNTzU3T77Nujysst3H0cxIXdjK3c/d8vRo0s6C/K0adMG9I0mi/pFVxdvwpov+dX1dPi1HvnyHr3Wvtajj4ccckhmIrDBEnItSxe9brUmS94k0913dLi3zsxdaNFh5ZrYZ/+wdtVVV/XbTIeVXn311Y6exuKW773VI1w66ibX8PJ+BQ3ywJuQ6zBfTUZ1wrPszxf10mHqhazzVeX9keWII47It1rRzweRkGulOmeB1/bwww/PGUvQ73P11tEH2o/az7pP/PSnP3Uuv/zyzDB2nYTMjS3X34nBEnK3IUG8P7P/Frll57v1/pgw2HwD+crI9bwmztdff73zrW99K2PjGrm3OspA3/d6ikCxSxBWWmdQnz1huPv9HCrWjvURQAABBBBwBdKzJZk/zJFazFEWMUc4xHwJE/MlS0wyLuZLmJiksGCchx56qJhZotPrmKMSYr4sp+9reebLhphZoGXS8svLlKlT0+UWLIwX+wmYLyVijvaJGVEgZviqLG8cl112WTE/bvRbz++DoMvzW2+U1it1P89ug/bH+++/L2byJjFHEmWdddaR0aNHZ6/m+7HGpe89Mx+AmEkXZaWVVhKTVPvePntFLW/mzJnpGMeMGSMmmRJzdLWoMs2M7GJ+YBMzBDxv29Th888/F3OEL/1eN0cHZbXVVhMzVDc7pEAfa/tMAipmojgxP8Cl3xulVuD9DHv66afFzCBfalGR2K5S7/Oenp70vu822owgkcUWW8x9WNJtUO/PkioPYSNz6kT6/aHvEX0v6XvQ/FglZtSZmB/hyqoxKCstJ8jPnrIalWNjP59DOTbjKQQQQAABBAoKRDIhLxhxgRe9X2a9CXmBTXgJAQQQiISAmaQy/eOBGfmQTuz1R8RyfgiJRKNKDMKMPhBz9FVWXHHFdNI42A9/+kOhGXWRrk1/LDQT65VYM5shgAACCCCAAAKVFSAhr6w3tSGAAAI5BcxEXGKGZKdfu+CCC8QMB8+5XhKe1B8ndISDLmYCvfToHDOsO2fTzXAv+d73vidmkrn06+bKD3LuuefmXJcnEUAAAQQQQACBqAmQkEetR4gHAQQSJ2BmBZdtt91WdEisnnagw+7zJaBJwdFTG/S0CV3MnB9y7LHH5mz6P//5z8zpSbqCuZSW7LDDDjnX5UkEEEAAAQQQQCBqAiTkUesR4kEAgdgLLFiwQA488MD0+fTmcnDy3//+Nz03gza8UPIZexhPA3U+ED0NyV3MxIJiJh9Lz12hR8V1TpDbb79dzOUWdXLS9GoHHXSQmGumu5twiwACCCCAAAIIRF6AhDzyXUSACCAQNwGd7MzMzp5JJN32mdnxxVzWsewJydzybL81M82LmV3dVzP0Bw4d6j9ixAhf67MSAggggAACCCAQBQES8ij0AjEggEDiBMzl6sRc2zvdbnPpKdl7773l/PPPl6WXXjpxFvkarEe+H374YTGXW5MHH3ww52o77rhj+kj6nnvumdhJ8HLC8CQCCCCAAAIIWCEQq4TcCnGCRAABBIyADlvXhNxcr1zMteLTk5cBk19Az6//9JNP5GPzTxN1vWyXXnpRL4XHggACCCCAAAII2CpAQm5rzxE3AggggAACCCCAAAIIIICA1QIk5FZ3H8EjgAACCCCAAAIIIIAAAgjYKkBCbmvPETcCCCCAAAIIIIAAAggggIDVAiTkVncfwSOAAAIIIIAAAggggAACCNgqQEJua88RNwIIIIAAAggggAACCCCAgNUCJORWdx/BI4AAAggggAACCCCAAAII2CpAQm5rzxE3AggggAACCCCAAAIIIICA1QIk5FZ3H8EjgAACCCCAAAIIIIAAAgjYKkBCbmvPETcCCCCAAAIIIIAAAggggIDVAiTkVncfwSOAAAIIIIAAAggggAACCNgqQEJua88RNwIIIIAAAggggAACCCCAgNUCJORWdx/BI4AAAggggAACCCCAAAII2CpAQm5rzxE3AggggAACCCCAAAIIIICA1QIk5FZ3H8EjgAACCCCAAAIIIIAAAgjYKkBCbmvPETcCCCCAAAIIIIAAAggggIDVAiTkVncfwSOAAAIIIIAAAggggAACCNgqQEJua88RNwIIIIAAAggggAACCCCAgNUCJORWdx/BI4AAAggggAACCCCAAAII2CpAQm5rzxE3AggggAACCCCAAAIIIICA1QIk5FZ3H8EjgAACCCCAAAIIIIAAAgjYKkBCbmvPETcCCCCAAAIIIIAAAggggIDVAiTkVncfwSOAAAIIIIAAAggggAACCNgqQEJua88RNwIIIIAAAggggAACCCCAgNUCJORWdx/BI4AAAggggAACCCCAAAII2CpAQm5rzxE3AggggAACCCCAAAIIIICA1QIk5FZ3H8EjgAACCCCAAAIIIIAAAgjYKkBCbmvPETcCCCCAAAIIIIAAAggggIDVAiTkVncfwSOAAAIIIIAAAggggAACCNgqQEJua88RNwIIIIAAAggggAACCCCAgNUCJORWdx/BI4AAAggggAACCCCAAAII2CpAQm5rzxE3AggggAACCCCAAAIIIICA1QIk5FZ3H8EjgAACCCCAAAIIIIAAAgjYKkBCbmvPETcCCCCAAAIIIIAAAggggIDVAiTkVncfwSOAAAIIIIAAAggggAACCNgqQEJua88RNwIIIIAAAggggAACCCCAgNUCJORWdx/BI4AAAggggAACCCCAAAII2CpAQm5rzxE3AggggAACCCCAAAIIIICA1QIk5FZ3H8EjgAACCCCAAAIIIIAAAgjYKkBCbmvPETcCCCCAAAIIIIAAAggggIDVAiTkVncfwSOAAAIIIIAAAggggAACCNgqQEJua88RNwIIIIAAAggggAACCCCAgNUCJORWdx/BI4AAAggggAACCCCAAAII2CpAQm5rzxE3AggggAACCCCAAAIIIICA1QIk5FZ3H8EjgAACCCCAAAIIIIAAAgjYKkBCbmvPETcCCCCAAAIIIIAAAggggIDVAiTkVncfwSOAAAIIIIAAAggggAACCNgqQEJua88RNwIIIIAAAggggAACCCCAgNUCJORWdx/BI4AAAggggAACCCCAAAII2CpAQm5rzxE3AggggAACCCCAAAIIIICA1QIk5FZ3H8EjgAACCCCAAAIIIIAAAgjYKkBCbmvPETcCCCCAAAIIIIAAAggggIDVAiTkVncfwSOAAAIIIIAAAggggAACCNgqQEJua88RNwIIIIAAAggggAACCCCAgNUCJORWdx/BI4AAAggggAACCCCAAAII2CpAQm5rzxE3AggggAACCCCAAAIIIICA1QIk5FZ3H8EjgAACCCCAAAIIIIAAAgjYKkBCbmvPETcCCCCAAAIIIIAAAggggIDVAiTkVncfwSOAAAIIIIAAAggggAACCNgqQEJua88RNwIIIIAAAggggAACCCCAgNUCJORWdx/BI4AAAggggAACCCCAAAII2CpAQm5rzxE3AggggAACCCCAAAIIIICA1QIk5FZ3H8EjgAACCCCAAAIIIIAAAgjYKkBCbmvPETcCCCCAAAIIIIAAAggggIDVAiTkVncfwSOAAAIIIIAAAggggAACCNgqQEJua88RNwIIIIAAAggggAACCCCAgNUCJORWdx/BI4AAAggggAACCCCAAAII2CpAQm5rzxE3AggggAACCCCAAAIIIICA1QIk5FZ3H8EjgAACCCCAAAIIIIAAAgjYKkBCbmvPETcCCCCAAAIIIIAAAggggIDVAiTkVncfwSOAAAIIIIAAAggggAACCNgqQEJua88RNwIIIIAAAggggAACCCCAgNUCJORWdx/BI4AAAggggAACCCCAAAII2CpAQm5rzxE3AggggAACCCCAAAIIIICA1QIk5FZ3H8EjgAACCCCAAAIIIIAAAgjYKkBCbmvPETcCCCCAAAIIIIAAAggggIDVAiTkVncfwSOAAAIIIIAAAggggAACCNgqQEJua88RNwIIIIAAAggggAACCCCAgNUCJORWdx/BI4AAAggggAACCCCAAAII2CpAQm5rzxE3AggggAACCCCAAAIIIICA1QIk5FZ3H8EjgAACCCCAAAIIIIAAAgjYKkBCbmvPETcCCCCAAAIIIIAAAggggIDVAiTkVncfwSOAAAIIIIAAAggggAACCNgqQEJua88RNwIIIIAAAggggAACCCCAgNUCJORWdx/BI4AAAtEQcHq6JdXVJU63ue3uEuntEyel/1IifX0ijiOij/vM4xqRxVZdfUDgXT0i737cJ7W1kv5XV1PzzX19zmzXUC8ypL5GGhvMbWON1JvnWRBAAAEEEEAAAVsFSMht7TniRgABBAIWcHp6pK+jXVJtbebfIkm1m3+Lvr6vjzs6TMLdKU7XV/9EE3C9rwm4Jtw+l5qhQ2XpY04esPaCVkf+fEv3gOcLPVFnEvKhJklfzCTnQ0ySvnijedxQY/6Z54aIjFisRoYP1X/mvt6ax8PM/cWH1IjJ91kQQAABBBBAAIGqCpCQV5WfyhFAAIHKCGiS3dvSJH3N5l/TwsxtqrVZpK3VJN6tJrk2iXUFliAT8lLD1Vx8uEnYRy5eIyNNgj5qWI0sOdz8G1Ejo839Jb7+p0fkWRBAAAEEEEAAgbAESMjDkqVcBBBAoIICOly8d8F86Z03V/oWzk8n3KmmBeb+AnGa5ovT21vBaApXFYWEvHCE37w6wiTtY0ySPubrZF2Tdr2/1BJfJe46vJ4FAQQQQAABBBAoVYCEvFQ5tkMAAQQqLOCYYeF9Lc3ppLt3/lzpnWuS73lfSGqu+WeOftuy2JSQFzLV4fLjRtbIeJOc67+lR9XIOPNv7Kja9PD5QtvyGgIIIIAAAgggoAIk5OwHCCCAQAQFUu3t0v3FZ9L72afS89kn0vflZybx/jxSR7pLZYtLQl6o/aPMueoTlhAZP7pWlh1Tk/631BK1TEJXCI3XEEAAAQQQSKAACXkCO50mI4BAtAR6zTndPZ9/lk68ez83yfenH0uqeWG0ggwwmiQk5Lm46syJ6xOWrJHl0wl6rUw095dZkqPpuax4DgEEEEAAgaQIkJAnpadpJwIIREKgz0ye1v3xHOn5yPz7eLb0ffaROJ2dkYitUkEkNSHP57u0OUd90tgaWW6pGllxaZOojzFH0uvyrc3zCCCAAAIIIBAnARLyOPUmbUEAgUgJ6DW4e778Qro/mi09cz6U3jmzJLVwXqRirEYwJOSF1fVI+oqanI+rNQm6SdZNkq6Xb2NBAAEEEEAAgfgJkJDHr09pEQIIVEkgZY50a/Ld/dGH5gi4OfptEnCnp7jralcp9IpWS0JePPdYM7P7SuO/OoKuSbqem8511It3ZAsEEEAAAQSiJkBCHrUeIR4EELBGwOnpkS4z/Lx71vvSPfNd6TND0MXMhM5SWICEvLCPn1cXbxRZdZlaWXlirUw1t0uZ2d1ZEEAAAQQQQMA+ARJy+/qMiBFAoEoC6SHoZtbzrg9MAv6BScBnz4zFrOeV5iQhD1589OI1Mm1iTTo5nzqhVkaaxywIIIAAAgggEH0BEvLo9xERIoBAFQV6Fy6QzvdmmCPg70mvScKdrmRNwBYGPQl5GKr9y1zGHDFf1Rw9X2WCGeq+TB3XRe/PwyMEEEAAAQQiI0BCHpmuIBAEEIiCgB4F1/PAu96dIV0zpqev/R2FuOIUAwl5ZXuzrlZkmjlqvsbytbLasrWyhDkfnQUBBBBAAAEEoiFAQh6NfiAKBBCookCqs0M6339Put55S3refVOcjvYqRhP/qknIq9vHE0fXyNqTamX15Wpl2bFMDlfd3qB2BBBAAIGkC5CQJ30PoP0IJFSgd8F86ZzxlknC35Recy64mCPjLJURICGvjLOfWkYMEVnLJOdrmqPnU8zQ9sYGP1uxDgIIIIAAAggEJUBCHpQk5SCAQOQF0ueDv/WGdL7xivR9+lHk441rgCTk0ezZhjqRNc1R8/VXrJVVl6uThvpoxklUCCCAAAIIxEmAhDxOvUlbEEBggEDvwoXSqUn49Fel7xNzWTKWqguQkFe9CwYNoNEk42ubo+branK+bJ3Um2SdBQEEEEAAAQSCFyAhD96UEhFAoMoCvU2ahE//6kg4SXiVe2Ng9STkA02i/MwQM4xdk/P1THK+8kSS8yj3FbEhgAACCNgnQEJuX58RMQII5BBIdXRI+/TXpPPVF6Tvow9zrMFTUREgIY9KTxQfx2ImOV/HnHP+rSl15nJqTAhXvCBbIIAAAggg0F+AhLy/B48QQMAiAb1EWdfMd6X9lRel9+3Xxenrsyj65IZKQh6Pvh+9eI1ssvJXyfmYkVxKLR69SisQQAABBCotQEJeaXHqQwCBsgV6vvxcOl59WbpefV5Si1rLLo8CKitAQl5Z70rUNnVcjWy0cp2svUKd6BB3FgQQQAABBBDwJ0BC7s+JtRBAoMoCKXNt8PY3zJD0l583M6TPqXI0VF+OAAl5OXrR3lZnatdZ2jeeWicrjmdIe7R7i+gQQAABBKIgQEIehV4gBgQQyCvQNXuWtL/wtPS8+RpD0vMq2fUCCbld/VVqtGOG18imq9Smj5yPXIwh7aU6sh0CCCCAQLwFSMjj3b+0DgErBVJdndL++qvS+fyT0vfFZ1a2gaDzC5CQ57eJ4yu1Jhdff4Va2WxanUw2R81ZEEAAAQQQQOAbARLybyy4hwACVRbo/uJzaX/xWel+5TlxururHA3VhyVAQh6WbPTLnbBEjWyxep2sP5lzzaPfW0SIAAIIIFAJARLySihTBwII5BXQmdE73p4u7c89JX2zZ+ZdjxfiI0BCHp++LLUlOvHbJlNqZfNp9bK0SdJZEEAAAQQQSKoACXlSe552I1Blgb62RdL2/DPS9fxTkmpjpvQqd0dFqychryh35CtbZRlz1NwMZ199+TqpZUR75PuLABFAAAEEghUgIQ/Wk9IQQGAQgd5582TRM49Jt5kt3enrHWRtXo6jAAl5HHu1/DaNNZPAbbdWnXxrSp001JdfHiUggAACCCBggwAJuQ29RIwIxEBAZ0tve+ox6ZnxRgxaQxPKESAhL0cv/tsOaxTZypxnvrk5aj5sKMPZ49/jtBABBBBItgAJebL7n9YjEKqAk0pJx4w3pf3JR6Tv49mh1kXh9giQkNvTV9WMtN4MX9/MXDZty9XrZexIEvNq9gV1I4AAAgiEJ0BCHp4tJSOQWAGnp1vaXnlROswR8dTCeYl1oOG5BUjIc7vwbH6B9SbVyjZmOPvyS3GSeX4lXkEAAQQQsFGAhNzGXiNmBCIqkOrqSl+2rP2J/4rT3hbRKAmr2gIk5NXuAXvrnzquRnZat16mTiAxt7cXiRwBBBBAwCtAQu7V4D4CCJQkkOrqNDOmPysdT5pEvKO9pDLYKDkCJOTJ6euwWjpl6a8S85UnkpiHZUy5CCCAAAKVESAhr4wztSAQS4FUpybiT5uh6Y+QiMeyh8NpFAl5OK5JLJXEPIm9TpsRQACBeAmQkMerP2kNAhURSHV2SNtzXyfi5j4LAsUIkJAXo8W6fgRIzP0osQ4CCCCAQBQFSMij2CvEhEBEBTQRX/TsU9L5tDkibo6OsyBQigAJeSlqbONHgMTcjxLrIIAAAghESYCEPEq9QSwIRFTA6emRtheelfbHHmBoekT7yKawSMht6i07Y9XEfLcN6mXF8ZxjbmcPEjUCCCCQHAES8uT0NS1FoGiB9HXEX39F2v57r6SaFxa9PRsgkEuAhDyXCs+FIbD28rWy6/r1Mm401zEPw5cyEUAAAQTKFyAhL9+QEhCIpUDnuzNk0YN3S98Xn8WyfTSqegIk5NWzT2LNmopvunKt7LxevYxcnMQ8ifsAbUYAAQSiLEBCHuXeITYEqiDQ/fEcabnfJOKzZ1ahdqpMggAJeRJ6OXptbKgT2W6NOtl6zToZ2khiHr0eIiIEEEAgmQIk5Mnsd1qNwACB3nlzpeWhe6XnrdcGvMYTCAQpQEIepCZlFSswrFHM0fI62XTVeqnnFPNi+VgfAQQQQCBgARLygEEpDgHbBFId7dLy8IPS9fwTIo5jW/jEa6EACbmFnRbDkMcMr5HdN6iTdSebQ+csCCCAAAIIVEmAhLxK8FSLQLUFdMK29pefl7YH72Hm9Gp3RsLqJyFPWIdHvLlTx9XI3pvUyzJLcrg84l1FeAgggEAsBUjIY9mtNAqBwgJds2dJ6z3/lr7PPym8Iq8iEIIACXkIqBRZloCeUb7ltFrZyUz8tvgQzi8vC5ONEUAAAQSKEiAhL4qLlRGwW6C3pUla779Hut942e6GEL3VAiTkVndfrIPX88t3+1a9bLJyndSQl8e6r2kcAgggEBUBEvKo9ARxIBCigNPTI4ueflw6HntAnN7eEGuiaAQGFyAhH9yINaorsOySNfJ9M4x9hXEMY69uT1A7AgggEH8BEvL49zEtTLhAx9tvyqJ775BU0/yES9D8qAiQkEelJ4hjMIENV6qV3c0Rc65fPpgUryOAAAIIlCpAQl6qHNshEHEBHZ7ecvft0jPjjYhHSnhJEyAhT1qP293eIfUiu65fJ9+eVi+1HDC3uzOJHgEEEIigAAl5BDuFkBAoR0BnT2974Rlpf/Bucbq7yymKbREIRYCEPBRWCg1ZYNKYGtlv83qZMIasPGRqikcAAQQSJUBCnqjuprFxF+j+/DNpueMW6ftkdtybSvssFiAht7jzEh66zvO2/Vp1suM69dJgjpyzIIAAAgggUK4ACXm5gmyPQAQEnJ5uaX3kIel46mERx4lARISAQH4BEvL8Nrxih8DY4V8dLZ86gaPldvQYUSKAAALRFSAhj27fEBkCvgQ6339XWu+6VVILmbTNFxgrVV2AhLzqXUAAAQlsPKVW9tiwXoYN5RppAZFSDAIIIJA4ARLyxHU5DY6LQKqtTZrN7Ondr78UlybRjoQIkJAnpKMT0ky9dvneG9fL+lPqEtJimokAAgggEKQACXmQmpSFQIUEOma8JYvuuFlSba0VqpFqEAhOgIQ8OEtKio7A6hNrZb9vc4m06PQIkSCAAAJ2CJCQ29FPRIlAWiDV2SEt994pXa88jwgC1gqQkFvbdQQ+iMDi5mj59zepl/VW4mj5IFS8jAACCCDwtQAJObsCApYIdM58T1r/fZOkzPXFWRCwWYCE3ObeI3Y/AuuvUCt7b8q55X6sWAcBBBBIugAJedL3ANofeYGUuZZ4ywP3SNfzT0Y+VgJEwI8ACbkfJdaxXWDEEJEDtqiXactxtNz2viR+BBBAIEwBEvIwdSkbgTIFumbPkpZ/maPiC+eVWRKbIxAdARLy6PQFkYQvsNnKZib2jRpkaEP4dVEDAggggIB9AiTk9vUZESdAwOnpkZaH75fOpx5JQGtpYtIESMiT1uO0d8ywGvmROVo+eRmuW87egAACCCDQX4CEvL8HjxCoukDv3C+l6eZrpe+LT6seCwEgEIYACXkYqpRpg8C2a9TJLhvUSz15uQ3dRYwIIIBARQRIyCvCTCUI+BNoe/kFabv7VnF6e/1twFoIWChAQm5hpxFyYALLjamRg7ZukLEjawIrk4IQQAABBOwVICG3t++IPEYCejmz5rv+Jd1vvByjVtEUBHILkJDnduHZ5AgMqRfZbzMuj5acHqelCCCAQH4BEvL8NryCQEUEuj/+SJpvudZM3Da/IvVRCQLVFiAhr3YPUH9UBDadWit7bdwgjUz4FpUuIQ4EEECg4gIk5BUnp0IEvhJwUilZ9NTj0v7fe0TMfRYEkiJAQp6UnqadfgTGm6HrB29bL+NHc2K5Hy/WQQABBOImQEIetx6lPVYI9C1qlWZzObOe92dYES9BIhCkAAl5kJqUFQcBneRt743rZdNVuWZ5HPqTNiCAAALFCJCQF6PFuggEINA5a6a03HyNOG2LAiiNIhCwT4CE3L4+I+LKCKw3qVZ+8O16GdrIhG+VEacWBBBAoPoCJOTV7wMiSIiA4zhmiPpj0v7g3SLmPgsCSRUgIU9qz9NuPwJjhtfIodvVyzJLMoTdjxfrIIAAArYLkJDb3oPEb4VAqqtTmv59s/S89ZoV8RIkAmEKkJCHqUvZcRBoMCPX9zezsK8/hSHscehP2oAAAggUEiAhL6TDawgEINAz90tpuvFKSc37MoDSKAIB+wVIyO3vQ1pQGYGtV6uT3TeslzoOllcGnFoQQACBKgiQkFcBnSqTI9D+1huy6LYbxOnpTk6jaSkCgwiQkA8CxMsIeASmjquRn2zTICMW47xyDwt3EUAAgdgIkJDHpitpSJQE9JJmrQ/dKx1PPhylsIgFgUgIkJBHohsIwiKBUSYZ/6m5NNqkpTlUblG3ESoCCCDgS4CE3BcTKyHgX6DPzJ7edPN10jvrPf8bsSYCCRIgIU9QZ9PUwATqzAHyfTY1l0ZbhfPKA0OlIAQQQCACAiTkEegEQoiPQPfnn0rzdZdLqqUpPo2iJQgELEBCHjAoxSVKYLOVa+V7mzRIPXl5ovqdxiKAQHwFSMjj27e0rMICHTPelNZbrjXni/dUuGaqQ8AuARJyu/qLaKMnMHkpM4R9uwYZznnl0escIkIAAQSKFCAhLxKM1RHIJdD65KPS/sBduV7iOQQQyBIgIc8C4SECJQiMGVYjP9+hQcaNZrK3EvjYBAEEEIiMAAl5ZLqCQGwUcPr6pPmu26Tr5edsDJ+YEaiKAAl5VdipNIYCQxpEfrp1g6yyLJO9xbB7aRICCCREgIQ8IR1NM4MXSLW1yYKbrpa+2TODL5wSEYixAAl5jDuXplVcQI+Pf3+TetlsGieVVxyfChFAAIEABEjIA0CkiOQJ9M79Uhbq5G0L5yWv8bQYgTIFSMjLBGRzBHIIbDWtVr67UYPUcrA8hw5PIYAAAtEVICGPbt8QWUQFOme+Jy03XSVOV2dEIyQsBKItQEIe7f4hOnsF1jBD1w80Q9iHmqHsLAgggAACdgiQkNvRT0QZEYG2l56TRXfeIuI4EYmIMBCwT4CE3L4+egCmpwAAL3NJREFUI2J7BCYuUSOHmsneRg9nsjd7eo1IEUAgyQIk5EnufdpelEDLow9Jx8P3FrUNKyOAwEABEvKBJjyDQJACI4aI/GKnBpk4hvHrQbpSFgIIIBCGAAl5GKqUGSsBJ5WS5ntul64XnopVu2gMAtUSICGvljz1JklAZ2D/ublW+UrLkJQnqd9pKwII2CdAQm5fnxFxBQWcnh5ZeOsN0vP26xWslaoQiLcACXm8+5fWRUegzoxaP3irellzRWZgj06vEAkCCCDQX4CEvL8HjxDICKQ6O2TB9VdyWbOMCHcQCEaAhDwYR0pBwK/ADzatl01XJSn368V6CCCAQCUFSMgrqU1d1gj0tjTLwmsuldSXn1kTM4EiYIsACbktPUWccRLYZd062XHd+jg1ibYggAACsRAgIY9FN9KIIAV6zDXGm675h6SaFwZZLGUhgMDXAiTk7AoIVEdgi1VrZa+NuVZ5dfSpFQEEEMgtQEKe24VnEyrQ/dFsabruMnE62hMqQLMRCF+AhDx8Y2pAIJ/AupNq5UdbNUg9I9jzEfE8AgggUFEBEvKKclNZlAU6Z82UlusuFZ3IjQUBBMITICEPz5aSEfAjsMr4Gjlk+0YZamZiZ0EAAQQQqK4ACXl1/ak9IgKd778rLTdcLk5vb0QiIgwE4itAQh7fvqVl9ghMHlsjPzfXKh/aaKZiZ0EAAQQQqJoACXnV6Kk4KgIdM96S1n9eJU5fX1RCIg4EYi1AQh7r7qVxFgksP6ZGDtuxQYYNJSm3qNsIFQEEYiZAQh6zDqU5xQm0T39dWm+9ViSVKm5D1kYAgZIFSMhLpmNDBAIXmDi6Ro7YmaQ8cFgKRAABBHwKkJD7hGK1+Am0v/qStP77RhHHiV/jaBECERYgIY9w5xBaIgWWGWWS8u80yIjFOFKeyB2ARiOAQFUFSMiryk/l1RJoe/E5WXTnzdWqnnoRSLQACXmiu5/GR1Rg3MivjpSPGkZSHtEuIiwEEIipAAl5TDuWZuUXWPTsk9L2n3/nX4FXEEAgVAES8lB5KRyBkgXGDq+R/zVHykebWxYEEEAAgcoIkJBXxplaIiKw6KnHpe3+OyISDWEgkEwBEvJk9juttkNgSXOEXJPyMSNIyu3oMaJEAAHbBUjIbe9B4vctsOi5p6Ttnn/5Xp8VEUAgHAES8nBcKRWBoASWMOeS/9+uJOVBeVIOAgggUEiAhLyQDq/FRqDtJXPO+B2cMx6bDqUhVguQkFvdfQSfEAE9Uv6rXRpkCYavJ6THaSYCCFRLgIS8WvLUWzGB9Gzq/7qhYvVREQIIFBYgIS/sw6sIREVgKTNsXY+Uj2T29ah0CXEggEAMBUjIY9ipNOkbgfbpr0nrLeY641za7BsU7iFQZQES8ip3ANUjUISAXhLtl+ZI+bChnFNeBBurIoAAAr4FSMh9U7GibQIdb78pLTddSTJuW8cRb+wFSMhj38U0MGYCyy5pknIz0dvQRpLymHUtzUEAgQgIkJBHoBMIIXiBzndnSMuNV4jT1xd84ZSIAAJlCZCQl8XHxghURWDyUjVy2E6NMqShKtVTKQIIIBBbARLy2HZtchvWOfM9abnuMpOM9yYXgZYjEGEBEvIIdw6hIVBAYOXxNfKzHRqlob7ASryEAAIIIFCUAAl5UVysHHWBrjkfSvNVF4vTSzIe9b4ivuQKkJAnt+9puf0Cq0+slUO2a5D6OvvbQgsQQACBKAiQkEehF4ghEIGeuV/IwkvPF6ezI5DyKAQBBMIRICEPx5VSEaiUwDqTauUnWzdIbW2laqQeBBBAIL4CJOTx7dtEtay3pUkW/uN8SZlbFgQQiLYACXm0+4foEPAj8O1VamWfzTih3I8V6yCAAAKFBEjIC+nwmhUCqY52mX/ZBZIyR8hZEEAg+gIk5NHvIyJEwI/AruvVyQ7rcEK5HyvWQQABBPIJkJDnk+F5KwScnh6Zf9Xfpe+jD62IlyARQECEhJy9AIH4CPxw83rZaGVOKI9Pj9ISBBCotAAJeaXFqS8wASeVkoU3XiU977wZWJkUhAAC4QuQkIdvTA0IVEpAr0z+s+3qZbXlScorZU49CCAQLwES8nj1Z2Ja4ziONN9xi3S9/Fxi2kxDEYiLAAl5XHqSdiDwlUCDycV/uXODTFqaWd7YJxBAAIFiBUjIixVj/UgItDx0n3Q8/mAkYiEIBBAoToCEvDgv1kbABoFhjSK/2a1Rlhqlx8xZEEAAAQT8CpCQ+5VivcgILHruaWm757bIxEMgCCBQnAAJeXFerI2ALQJjhtXIr3drkJGLk5Tb0mfEiQAC1RcgIa9+HxBBEQKd782Q5usuEzFD1lkQQMBOARJyO/uNqBHwIzBxdI38366NMpQrovnhYh0EEEBASMjZCawR6P7ic2m69FxxurutiZlAEUBgoAAJ+UATnkEgTgJrLlsrh2zXILWcUh6nbqUtCCAQkgAJeUiwFBusQN+iVllwyXmSal4QbMGUhgACFRcgIa84ORUiUHGBbVevkz024hrlFYenQgQQsE6AhNy6LktewFxrPHl9TovjLUBCHu/+pXUIuAJco9yV4BYBBBDIL0BCnt+GVyIgoJc3a7rtBul+/eUIREMICCAQhAAJeRCKlIFA9AVqzdxuv9ypQSYvw9j16PcWESKAQLUESMirJU+9vgRaHnlQOh65z9e6rIQAAnYIkJDb0U9EiUAQAno5tKN2b5QxI5l5PQhPykAAgfgJkJDHr09j06L2N16T1luuiU17aAgCCHwlQELOnoBAsgTGm2T8N7s3yNBGkvJk9TytRQABPwIk5H6UWKfiAt0fz5Gmyy8Up6+34nVTIQIIhCtAQh6uL6UjEEWB1SfWyv9sz8zrUewbYkIAgeoKkJBX15/acwj0tZoZ1S8+S1JmZnUWBBCInwAJefz6lBYh4Edg69XqZM+NmXndjxXrIIBAcgRIyJPT11a01Onrk/lXXix9c2ZZES9BIoBA8QIk5MWbsQUCcRFg5vW49CTtQACBoARIyIOSpJxABJruuV26nnsikLIoBAEEoilAQh7NfiEqBCohUGcmXD9q1waZOJaZ1yvhTR0IIBB9ARLy6PdRYiJsN5c2a731+sS0l4YikFQBEvKk9jztRuArgSWH1chv92iQYUOZ5I19AgEEECAhZx+IhED3559K0z/OFaeXSdwi0SEEgUCIAiTkIeJSNAKWCOgkb4fu0CA15OSW9BhhIoBAWAIk5GHJUq5vgVRHu8z/+zmSWjjf9zasiAAC9gqQkNvbd0SOQJAC31mnTnZaj0negjSlLAQQsE+AhNy+PotVxE4qJQuvv0J63ns7Vu2iMQggkF+AhDy/Da8gkDSBw7avl2nL1SWt2bQXAQQQyAiQkGcouFMNgZaH75eORx+oRtXUiQACVRIgIa8SPNUiEEGBxRpEfvfdRhkzgrHrEeweQkIAgQoIkJBXAJkqcgt0vPO2tFx/We4XeRYBBGIrQEIe266lYQiUJLDskjXy610bpYHR6yX5sRECCNgtQEJud/9ZG31vS5MsuPAsccz54ywIIJAsARLyZPU3rUXAj8AmU2plvy3M4XIWBBBAIGECJOQJ6/AoNFfPG59/5cXSN/uDKIRDDAggUGEBEvIKg1MdApYIHPDtetlwKueTW9JdhIkAAgEJkJAHBEkx/gU4b9y/FWsiEEcBEvI49iptQqB8gUYzZP3oPRplqVGcT16+JiUggIAtAiTktvRUTOLsnDVTmq+6WMRxYtIimoEAAsUKkJAXK8b6CCRHQM8n/81ujVLPgfLkdDotRSDhAiTkCd8BKtn8vrZFsuCisyTV2lLJaqkLAQQiJkBCHrEOIRwEIiaw7ep1ssdGzPAWsW4hHAQQCEmAhDwkWIrtL+CYI+Lp642/+1b/F3iEAAKJEyAhT1yX02AEihY4fPsGWWW52qK3YwMEEEDANgESctt6zNJ4Fz39hLTdd7ul0RM2AggEKUBCHqQmZSEQT4HhjSJ/+F6jjFiM88nj2cO0CgEEXAEScleC29AEuj/5WJouO0+cvr7Q6qBgBBCwR4CE3J6+IlIEqimw2oQa+dmOjVJDTl7NbqBuBBAIWYCEPGTgpBef6uqS+Rf/TVIL5iWdgvYjgMDXAiTk7AoIIOBXYK8N62SrNTif3K8X6yGAgH0CJOT29ZlVETfdeZt0vfi0VTETLAIIhCtAQh6uL6UjECeBWnN0/KhdG2TZpTifPE79SlsQQOAbARLybyy4F7BA53vvSPO1/wi4VIpDAAHbBUjIbe9B4kegsgJLj6iRo/dslAYOlFcWntoQQKAiAiTkFWFOXiWpjg6Zf8GZ5hJnzclrPC1GAIGCAiTkBXl4EQEEcghsYy6F9l0uhZZDhqcQQMB2ARJy23swovEvvPUG6X79pYhGR1gIIFBNARLyaupTNwL2CvzqOw0yeTxD1+3tQSJHAIFcAiTkuVR4riyB9rdel9abri6rDDZGAIH4CpCQx7dvaRkCYQqMHV4jvzdD1xsbwqyFshFAAIHKCpCQV9Y79rX1LWqV+eefIU5He+zbSgMRQKA0ARLy0tzYCgEERLaaVit7bUJGzr6AAALxESAhj09fRqIlC264UnpmTI9ELASBAALRFCAhj2a/EBUCtgj8cqcGmTKBoeu29BdxIoBAYQES8sI+vFqEQPsrL0rrv28sYgtWRQCBJAqQkCex12kzAsEJLDnMDF3fq1GGcqA8OFRKQgCBqgmQkFeNPl4V9zY3yYILzFD1rq54NYzWIIBA4AIk5IGTUiACiRPYbOVa2XdzMvLEdTwNRiCGAiTkMezUajRpwfVXSM87b1ajaupEAAHLBEjILeswwkUgogKH79AgqyzL0PWIdg9hIYCATwEScp9QrJZfoH26mVX9ZmZVzy/EKwgg4BUgIfdqcB8BBEoVWGKxGjl270YZwoHyUgnZDgEEIiBAQh6BTrA5hFRHh8w/73RJtbXa3AxiRwCBCgqQkFcQm6oQiLnA1qvVyZ4b18e8lTQPAQTiLEBCHuferUDbmu64VbpeeqYCNVEFAgjERYCEPC49STsQiIbA73ZrkGWXYuh6NHqDKBBAoFgBEvJixVg/I9A1e5Y0XX5B5jF3EEAAAT8CJOR+lFgHAQT8Ciy7ZI0ctXuj1JKT+yVjPQQQiJAACXmEOsOmUJyeHpl38d8kNe9Lm8ImVgQQiIAACXkEOoEQEIiZwPc2qpMtV2foesy6leYgkAgBEvJEdHPwjWx5+AHpePT+4AumRAQQiL0ACXnsu5gGIlBxgUaTi//RXJt8ieE1Fa+bChFAAIFyBEjIy9FL6LY9c7+QhRedJU5fX0IFaDYCCJQjQEJejh7bIoBAPoG1l6+VQ7ZjyvV8PjyPAALRFCAhj2a/RDYqJ5WS+VdcJH1zZkU2RgJDAIFoC5CQR7t/iA4BmwUO3aZe1lihzuYmEDsCCCRMgIQ8YR1ebnPbXn5BFt1+U7nFsD0CCCRYgIQ8wZ1P0xEIWWDU19cmH8qB8pClKR4BBIISICEPSjIB5aQ6O2TeOaeK096WgNbSRAQQCEuAhDwsWcpFAAEV4Nrk7AcIIGCTAAm5Tb1V5Vib771TOp95rMpRUD0CCNguQEJuew8SPwLRFtBp3f6wZ4OMH8110KLdU0SHAAIqQELOfuBLQCdyW3DhX0XMOeQsCCCAQDkCJOTl6LEtAgj4EVh1mRr5xc6NflZlHQQQQKCqAiTkVeW3p/L5V/9Deme+Y0/ARIoAApEVICGPbNcQGAKxEjh0WzPB2yQmeItVp9IYBGIoQEIew04Nukkdb02XlpuuDLpYykMAgYQKkJAntONpNgIVFhhrrkl+zPcapZ6cvMLyVIcAAsUIkJAXo5XAdZ2eHpl33hmSal6QwNbTZAQQCEOAhDwMVcpEAIFcAnusXyfbrl2f6yWeQwABBCIhQEIeiW6IbhAtjz4kHQ/fG90AiQwBBKwTICG3rssIGAFrBRpNLv6nvRtl5OI61RsLAgggED0BEvLo9UlkIuptWigLzjtNnN7eyMREIAggYL8ACbn9fUgLELBJYOMptbL/FlyY3KY+I1YEkiRAQp6k3i6yrQtuvk56pr9S5FasjgACCBQWICEv7MOrCCAQvMBRuzXI8ktxGbTgZSkRAQTKFSAhL1cwptt3fzxHFv7j3Ji2jmYhgEA1BUjIq6lP3QgkU2CFsTXy690apYaR68ncAWg1AhEWICGPcOdUM7R5l18kfbNnVjME6kYAgZgKkJDHtGNpFgIRF/jxFvWy/hSmXI94NxEeAokTICFPXJcP3uDOd9+W5usuG3xF1kAAAQRKECAhLwGNTRBAoGyBMeYyaMeaCd7qGbletiUFIIBAcAIk5MFZxqIkJ5WSeReeJam5n8eiPTQCAQSiJ0BCHr0+ISIEkiKwz8Z18u3VuAxaUvqbdiJggwAJuQ29VMEY215+URbdfmMFa6QqBBBImgAJedJ6nPYiEB2B4Y0ix+87RIYw6Xp0OoVIEEi4AAl5wncAb/Odnh6Zd+6pkmpp9j7NfQQQQCBQARLyQDkpDAEEihTYdb062WEdjpIXycbqCCAQkgAJeUiwNhbb+uSj0v7AXTaGTswIIGCRAAm5RZ1FqAjEUGCIycX//P1GGTaUKddj2L00CQHrBEjIreuycAJOdbTLvLNPFqezM5wKKBUBBBD4WoCEnF0BAQSqLbDN6nXy3Y04Sl7tfqB+BBAQISFnL0gLNN9/t3Q+9QgaCCCAQOgCJOShE1MBAggMIlBnDo7/ycy4PnoER8kHoeJlBBAIWYCEPGRgG4rvbWmSBWefIk5fnw3hEiMCCFguQEJueQcSPgIxEdh4Sq3svwWzu8WkO2kGAtYKkJBb23XBBd50z+3S9dwTwRVISQgggEABARLyAji8hAACFRU4Zs8GGT+aC5NXFJ3KEECgnwAJeT+O5D3oNTOqL9Bzxzk6nrzOp8UIVEmAhLxK8FSLAAIDBNaZVCsHb8tR8gEwPIEAAhUTICGvGHU0K+LoeDT7hagQiLMACXmce5e2IWCfwB++2yDLLMlRcvt6jogRiIcACXk8+rGkVnB0vCQ2NkIAgTIFSMjLBGRzBBAIVGD9FWrlx9twlDxQVApDAAHfAiTkvqnityJHx+PXp7QIARsESMht6CViRCBZAsfu2SjjRjPjerJ6ndYiEA0BEvJo9EPFo+gz547P59zxirtTIQIImOttDh0qSx9z8gCKBa2O/PmW7gHP8wQCCCAQtsCGK9XKAVtylDxsZ8pHAIGBAiTkA00S8UzTPXeYmdUfT0RbaSQCCERLgIQ8Wv1BNAgg8JXAcd9rlKVGcZSc/QEBBCorQEJeWe9I1PbV0XG97nhvJOIhCAQQSJYACXmy+pvWImCLANclt6WniBOBeAmQkMerP321pvk/d0jnsxwd94XFSgggELgACXngpBSIAAIBCOix8T/t0yhjRnCUPABOikAAAZ8CJOQ+oeKyWt+iVpl/1kkcHY9Lh9IOBCwUICG3sNMIGYGECGy2cq3suznnkieku2kmApEQICGPRDdULoiWh++XjkcfqFyF1IQAAghkCZCQZ4HwEAEEIiNQaw6OH2+Oko8ezlHyyHQKgSAQcwES8ph3sLd5qe5umXfWieJ0tHuf5j4CCCBQUQES8opyUxkCCBQpsNW0WtlrE46SF8nG6gggUKIACXmJcDZutui5p6Ttnn/ZGDoxI4BAjARIyGPUmTQFgRgKNNSJnPiDRll8CEfJY9i9NAmByAmQkEeuS8IJyEmlZN45p0mqaX44FVAqAggg4FOAhNwnFKshgEDVBPbYoE62Xau+avVTMQIIJEeAhDwhfd0+/XVpvfnqhLSWZiKAQJQFSMij3DvEhgACKjBqaI0cb46S19figQACCIQrQEIerm9kSp/393Ok79OPIhMPgSCAQHIFSMiT2/e0HAGbBA78dr1sMNWMX2dBAAEEQhQgIQ8RNypFd86aKc1XXhSVcIgDAQQSLkBCnvAdgOYjYInAxNE1cvSejZZES5gIIGCrAAm5rT1XRNwLrr1Met57u4gtWBUBBBAIT4CEPDxbSkYAgWAF/nenBpk6gXHrwapSGgIIeAVIyL0aMbzf/cXnsvDCM2PYMpqEAAK2CpCQ29pzxI1A8gRWn1grP9uRS6Alr+dpMQKVEyAhr5x1VWpquuMW6Xrp2arUTaUIIIBALgES8lwqPIcAAlEVONYMWx9nhq+zIIAAAmEIkJCHoRqRMlMd7TLvzL+I09sbkYgIAwEEEBAhIWcvQAABmwQ2W7lW9t2co+Q29RmxImCTAAm5Tb1VZKyLnn5C2u67vcitWB0BBBAIV4CEPFxfSkcAgWAF6swp5CeZS6ANM5dCY0EAAQSCFiAhD1o0IuU5qZTMO+90SS2YF5GICAMBBBD4SoCEnD0BAQRsE9jzW3Wy9Zr1toVNvAggYIEACbkFnVRKiJ3vvyvN11xSyqZsgwACCIQqQEIeKi+FI4BACAJjh9fIcfs0Sg0HyUPQpUgEki1AQh7T/l9ww5XSM2N6TFtHsxBAwGYBEnKbe4/YEUiuwBE7NMjKy3IJtOTuAbQcgXAESMjDca1qqb1NC2X+2SeLOE5V46ByBBBAIJcACXkuFZ5DAIGoC6wzqVYO3pbJ3aLeT8SHgG0CJOS29ZiPeFseuk86Hn/Qx5qsggACCFRegIS88ubUiAAC5QvoaPUT9m2UUcMYt16+JiUggIArQELuSsTkVi9xNvfME8TpaItJi2gGAgjETYCEPG49SnsQSI7ALuvWyY7rMrlbcnqcliIQvgAJefjGFa2h/fVXpPXW6ypaJ5UhgAACxQiQkBejxboIIBAlgVGL1chfzFHyWk4lj1K3EAsCVguQkFvdfQODn3fZBdI3Z9bAF3gGAQQQiIgACXlEOoIwEECgJIFDt62XNSbVlbQtGyGAAALZAiTk2SIWP+6dN1fmn3eaxS0gdAQQSIIACXkSepk2IhBfgdUm1MjPd2qMbwNpGQIIVFSAhLyi3OFW1vLgvdLxxEPhVkLpCCCAQJkCJORlArI5AghUXeD4vRtlzEgmd6t6RxAAAjEQICGPQSdqE5xUSuaddZKkWptj0iKagQACcRUgIY9rz9IuBJIj8J116mSn9ZjcLTk9TksRCE+AhDw824qW3Pn+u9J8zSUVrZPKEEAAgVIESMhLUWMbBBCIksCY4TXyp30apYaD5FHqFmJBwEoBEnIru21g0AtuuU563nhl4As8gwACCERMgIQ8Yh1COAggUJLAr77TIJPHM916SXhshAACGQES8gyFvXdSHR0y74zjxenrs7cRRI4AAokRICFPTFfTUARiLbDZyrWy7+YNsW4jjUMAgfAFSMjDNw69hkUvPCttd90Sej1UgAACCAQhQEIehCJlIIBAtQWGmFz8lP2GSAOnkle7K6gfAasFSMit7r6vgp93yXnS98nsGLSEJiCAQBIESMiT0Mu0EYFkCBy0Vb2sO5lrkiejt2klAuEIkJCH41qxUnvmfiELzj+jYvVREQIIIFCuAAl5uYJsjwACURFYfWKt/GxHhq1HpT+IAwEbBUjIbew1T8wtD/xHOp78r+cZ7iKAAALRFiAhj3b/EB0CCPgX0EnWT/xBo4xcnOnW/auxJgIIeAVIyL0alt13HMdce/xESbVw7XHLuo5wEUi0AAl5orufxiMQO4G9NqyTrdbgRPLYdSwNQqBCAiTkFYIOo5quOR9K02Xnh1E0ZSKAAAKhCZCQh0ZLwQggUAWBiUvUyNF7NVahZqpEAIE4CJCQW9yLzf+5QzqffdziFhA6AggkUYCEPIm9TpsRiLfAMXs2yPjRXJM83r1M6xAIR4CEPBzX0Et1Uqmvhqu3toReFxUggAACQQqQkAepSVkIIBAFgV3WrZMd12XYehT6ghgQsE2AhNy2Hvs63s4PP5DmKy60NHrCRgCBJAuQkCe592k7AvEUWGZUjfzhewxbj2fv0ioEwhUgIQ/XN7TSm+65XbqeeyK08ikYAQQQCEuAhDwsWcpFAIFqChy7Z6OMG81s69XsA+pGwEYBEnILe02Hq8898y/itC2yMHpCRgCBpAuQkCd9D6D9CMRTYNf16mSHdRi2Hs/epVUIhCdAQh6ebWgld37wvjRfdXFo5VMwAgggEKYACXmYupSNAALVEphgZlv/PbOtV4ufehGwVoCE3MKua7rrNul64WkLIydkBBBAQISEnL0AAQTiKnCcOY98KXM+OQsCCCDgV4CE3K9URNZLD1c//XhxOtojEhFhIIAAAsUJkJAX58XaCCBgj8Du69fJdmszbN2eHiNSBKovQEJe/T4oKoLOme9J89V/L2obVkYAAQSiJEBCHqXeIBYEEAhSYKKZ1O1oM7kbCwIIIOBXgITcr1RE1mu+907pfOaxiERDGAgggEDxAiTkxZuxBQII2CPAsHV7+opIEYiCAAl5FHqhiBjm/u0USTXNL2ILVkUAAQSiJUBCHq3+IBoEEAhWYI8N6mTbtRi2HqwqpSEQXwEScov6tufLz2XBBWdaFDGhIoAAAgMFSMgHmvAMAgjER2DK0jXyy10Zth6fHqUlCIQrQEIerm+gpbc+8ai0P3hXoGVSGAIIIFBpARLySotTHwIIVFrg1P0bZdhQZluvtDv1IWCjAAm5Rb0277ILpG/OLIsiJlQEEEBgoAAJ+UATnkEAgXgJ/GTLellvpbp4NYrWIIBAKAIk5KGwBl9oX9simXfGn0UcJ/jCKREBBBCooAAJeQWxqQoBBKoisOHkWjlgq4aq1E2lCCBglwAJuSX91f7qS9L6rxssiZYwEUAAgfwCJOT5bXgFAQTiIbC4OYX8lP2HSG1tPNpDKxBAIDwBEvLwbAMtecE/r5WeN18NtEwKQwABBKohQEJeDXXqRACBSgv8ZpcGWWEcGXml3akPAdsESMgt6DGnt1fmnnacON3dFkRLiAgggEBhARLywj68igAC8RDYae06+c76XP4sHr1JKxAIT4CEPDzbwErunPmeNF/998DKoyAEEECgmgIk5NXUp24EEKiUwMTRNXL0nlz+rFLe1IOArQIk5Bb0XPP9d0nnU49aECkhIoAAAoMLkJAPbsQaCCAQD4ET922UUcO4/Fk8epNWIBCOAAl5OK6BljrvwrOk74tPAy2TwhBAAIFqCZCQV0ueehFAoNIC+21WL5uswuXPKu1OfQjYJEBCHvHeSl/u7PTjIx4l4SGAAAL+BUjI/VuxJgII2C2wzqRaOXhbLn9mcy++8sorst566xVsQn19vYwcOVKmTJkiu+22m+y7774yderUgttE5cU111xTpk+fLgcddJBcccUVUQkrHUd7e7t88skn1liWikdCXqpchbZrn/6atN58TYVqoxoEEEAgfAES8vCNqQEBBKIhsJjJxU87YIjUMGo9Gh1SQhR+EvJcxR588MFy6aWXmkvfRXum/agm5Pfff78cccQR8tvf/lYOPfTQXMSxeY6EPOJd2XTHLdL10rMRj5LwEEAAAf8CJOT+rVgTAQTsFzh69waZODbaSZn9yuG1wJuQ77777rLzzjsPqKynp0f0aO5LL70kt9xyS+b1E088Uf74xz9mHkfxThQT8gULFsiYMWPSXJdccgkJeRR3nCTFNPeskyXVvCBJTaatCCAQcwES8ph3MM1DAIF+AnttWCdbrcHlz/qhWPTAm5CfdtppcvTRRxeM/s4775QDDjhAWltb0+u9+eabstpqqxXcppovkpBXU/+rujlCXv0+yBtB74L5Mv+cU/K+zgsIIICAjQIk5Db2GjEjgECpAmsuWyv/swPnkZfqV+3tik3INV49Mv6nP/0pHfpVV10lP/7xj6vdjLz1k5DnpanYCyTkFaMuvqK2l56TRXfcXPyGbIEAAghEWICEPMKdQ2gIIBC4wBBzcPx0cx55xE8lDrzdcSmwlIT8mWeekU033TRNcNhhh8lFF12Uvt/b2yszZsxI3588ebIMHTpUXnvtNXnqqadk3LhxssMOO8ioUaMG0M2bN0/eeustef/996Wrq0umTZsmq6yyiiyzzDID1s31xKJFi+Sxxx6TWbNmyZJLLikbbLBBegI6Pb89X0Kuk6ktXLhQ6urq0vXlKlefe++999IxjRgxQiZNmpRvNWlubpYnnnhCPvroI+nr65MVVlhB1l57bVluueX6baMjCpqammTzzTdPP68/bOyzzz7p+zrSIOrn5PdrjM8HJOQ+oaqx2oKbr5Oe6a9Uo2rqRAABBEITICEPjZaCEUAgogJH7togk5bmPPKIdk/BsEpJyD/++ONMorn//vvL9ddfn65j/vz5Mnbs2PT9V199NT3p24UXXpipf4kllpBPP/1UFltssfRzbW1tct5558lxxx2XTmIzK359Ryc702H0o0ePzn4p8/jiiy+WP/zhD+mEOPOkuaMJ72233SbbbrttzlnWjzrqKDnrrLNk2LBhogl9vsVN6HWY/rXXXjtgNT23/i9/+YucffbZoufae5caM9vhr371q3T73DboDwCpVMq7Wua+ngYwfPjwzOO43CEhj2hPOmZHnGsud+Z0tEc0QsJCAAEEShMgIS/Nja0QQMBegT3Wr5Nt1+Y8cht7sJSE/KGHHpLtt98+3dxTTz1Vfv/736fvexPyI488Mp3wek1++MMfynXXXZd+ShPZjTfeWN544430Yz2SvNVWW6UT0scff1z0SLIu+vx//vMfWWONNdKPvf9pIq4Juy56BPs73/lOerK0hx9+OH2kXo/St7S0iB6Bz77sWRAJuR4V10nwdMSALhrr1ltvLQ0NDXLNNddkEvSddtpJ7rjjDmlsbBS939HRIdpGXfRScno0XRddZ/HFF0/fj9N/JOQR7c3uzz+VhRedFdHoCAsBBBAoXYCEvHQ7tkQAATsFpi1TI4ft3Ghn8AmPutiEvLu7W7bcYgt59rnn0nIPPPBAJjn3JuT64oorriiasK+zzjrynFl/1VVXlQ033DC9nSbxp59+evr+n//8ZznmmGPSiWz6CfOfHo3WS6vpMHgdHq8JrB5ddpcnn3xSvv3tb6cf6o8DmugvvfTS6ceO48g555wjv/nNb9zVQ0nItXw9Mq6Lxn/88cenk259rEfdTzrppEwbdT09Wq4Ls6ynGfiv2gKLnn9a2u6+rdphUD8CCCAQuAAJeeCkFIgAAhEXaDB5kp5HXv9NvhTxiAnPFfAm5KecckrOWdY1ufziiy/S54OffPLJosPRddl1111FZ13Xodm6ZCfkeu64e655eoWv//Oeg67X4j7//PO9L2fuX3HFFXLIIYekH19++eXpBN19US/Rdtddd6UT4M8++yx97rj7mnurCfC5556bfhj0EfI5c+Zkzinfe++9+10Ozq1f3aZOnSqff/55+jx1PeqvViTkrhC3VRVYeOsN0v36S1WNgcoRQACBMARIyMNQpUwEEIi6wK++0yCTx3MeedT7KTs+b0Ke/Vqhx3r0+8EHH5SVVlops5o3IdeJ1V544YXMa9477iztmpzOnj07cz66dx29r0fjV1999fRkb1uYo/I6cZsueg72yJEjRc9B1+uga3m5Fp3kTYet6xJ0Qu79seDFF1+U9ddfP1cIcv/998vbb7+dHpquk9rpsHUS8pxUPFlpgblnnWSuP76w0tVSHwIIIBC6AAl56MRUgAACERTY3ZxHvh3nkUewZwqHVGxCrudH65H0X/ziFwPOd/Ym5AceeKBcffXVOSvfb7/95KabbkrPQu4ebc+5onny8MMPT8/irudW6xFnTeK9R6f1CP1uu+2Wb/P0EWqdvT3ohFwnnLv00kvT8egPB/X1/udQICHP2128UCmB3pZmmf/XEypVHfUggAACFRUgIa8oN5UhgEBEBNZczlyPfHuuRx6R7vAdhjch32OPPdLD0LM31tnRJ06cmP43fvz4zHnS2et5E3I9aq1Hr3Mtei75O++8k77c1803F74E8l//+lf57W9/my5Gh6Zr/Xre+o477ph+To/C69H4fItOunbfffcFnpDrcP177rknfQR+5syZ+arP+TwJeU4WnqykQPtbr0vrTbl/MatkHNSFAAIIhCFAQh6GKmUigEDUBYaZOd1ONeeRs9gl4E3Idcbyo48+uuQGeBNyvTa5XqM8e9EJ1/Rosg4716PfF1xwQfYq/R7rueM//elP08/p0G9N5vXItB6h1uXdd99NHwVPP8jxn26rZQR9hFwvq+aeI6+3xSwk5MVosW4oAs333SWdTz8aStkUigACCFRbgIS82j1A/QggUC2BP+3dKGNHfjXBV7VioN7iBCqdkGt0a621VvpyZzoxm17qq9BywgknpGcv13V0crRx48bJrbfemj66rs/pbOubbbaZ3s256FF/HdaeLyEfOnRo+jJkOTc2T+q58h9++KFkX4dch+TrTPATJkyQTz75JN/mOZ8nIc/JwpOVFJh3yXnS98nsSlZJXQgggEDFBEjIK0ZNRQggEDGBH29RL+tPYar1iHVLwXCqkZDvv//+cuONN8oqq6ySvl54oQD10mdXXnllepWurq70cPmnn346k4Truej77rtv3iKmTZuWriM7If/d734nZ555ptT+P3tXDxJHEIWfJ2Kh+JOAQRAjikJAkBQKV3kiNlpErjBdIJV2arRRwcQihRC1Ek4hYBpBBC0iWkRFSKXYSCwCRwxBGzXERBM1qDH3PTKX9VyjxcXbXb9X7M7O7cy8+eaab9+fzycnJye242HNT01N1XrisYTcJKbDQKOX3SRws5+YmNCM7H6/X+ukk5DbIcW+a0Pg9OhItp53Ij3ita3JhYgAESAC14kACfl1os21iAARcBICgXs+CfoZR+6kM7lMl0QQcqvVG+ujTrmdgLjm5+drNnXEgk9PT+trh4eHSmz39/eloaFBxsbG7IbL2tpaNAt8LCFHzXDoAdnb25P09PRzcyDOHS7ykFhCjg8K+LAAmZ2dlerqam3HXmBFhzUdgqzvBQUFZ7Ksh0IhaWxsjB3mqeekyJeNU0/tyOWb+fnpo3x9+e9YEZdvkeoTASJwwxEgIb/hfwBunwjcYATybydJ+4NIMDnFNQgkgpCvr69rMrTj42PNkD45OSnJyec9K7q7u6MlzZCx3RBbgItEb0j4BllcXJSKigptWy8gusPDw9oVS8itselDQ0PRmHQzHlbv+vp6TQiHvlhCvru7qxZ+uNEHAgGZm5tTa7sZjzvmQLm2paUlKS8v1zv6Ua7NfABAxvqOjg50e1ZIyB12tHtvF2T/zWuHaUV1iAARIALxQ4CEPH5YciYiQATchQCix188SpWUq1eActcGPahtIgg5YOzr65P29nZFFLHkg4ODkpeXp88guz09PdLf36/PlZWVmlkdNbyNHBwcSG1trSwsLEhaWprGlaPON1zQUR4NZH5gYMC8fi6GfHNzU3JzcwW2W8yLuHSsg5hylGLDWLjDo8zbUcTDN5aQY2KrlTwYDOoekAUesr29LW1tbRpnjmdkejeZ4ZHQDmvCVb60tFQT26GsGzwFsJ7XhITcYSf6ZXREjt6/c5hWVIcIEAEiED8ESMjjhyVnIgJEwH0IPKlLkYI7PvcpfkM1ThQhB6FubW0VWKeNIIFaRkaGrKysmC5B3PX4+LiWXIt2/mlsbW3p73BNh2RmZkpJSYksLy8r0a6pqdEY8KmpqXOEHO9bLfB4BpkHUYZLPKSzs1NJc29vry0hB7FGVnpjqccYxMWDXIPUG0dtu+z1cLXHvqxisshb+7zQJiF32CluR+qP/4rUIacQASJABLyKAAm5V0+W+yICROAqCAQrkiVQShP5VbBywjuJIuRm7zMzM4IEa6urq6ZL74i1bm5ulqamJrVan/nR8oAa4CDWo6Oj0V6UVYNFG1Z3lFYbGRmxJeQYgPhzWLKtmdKLi4t1bYzt6uoSuJXbWcjNgvPz89LS0qKZ400f7mVlZWppr6qqsnZre2dnR5CwDh8L4LoPQbuurk7bXrqQkDvoNE9+fJfPvU8dpBFVIQJEgAjEHwES8vhjyhmJABFwDwL37/rkcbX33G7dcwLu1BRu5uFwWBOsoZQYrOV2ceUX7Q7WciRNg8s33MCt7u0XjbH2Ixs6yH1hYaGWMrP+dtU2ksNhD4gdLyoqkpycnEuHwh1+Y2NDsrOzJSsr69L33fgCCbmDTu3wQ1i+vQo5SCOqQgSIABGIPwIk5PHHlDMSASLgHgRupSXJs4d/Y33dozk1JQJE4H8g8BsAAP//qbs+4wAAQABJREFU7N0HfBRV4gfw3+6mkkAICQkdpBOaFAVpVkQRBUFBEFFQmnSxoR4WVFQQ693ZTz319O9Z8EQRkC4dQu+9k15J2/J/b3AjgZRJsrszs/MbP5pkd+aV71uVX+bNexaXOMBDFwJZf6xA9m8/6aItbAQFKEABbwlYQkIQ89RLlxWfkunCc9/mX/Y6X6AABSjgbwKvDQ9CSJDF37rF/lCAAhUQsDCQV0DNS5ek/vdL5G/f4qXSWSwFKEABfQgwkOtjHNgKClBAO4GpfQPRuJZVuwawZgpQQDcCDOS6GQog6e1X4EhK1FGL2BQKUIACnhdgIPe8KUukAAWMJTC4qw094gKM1Wi2lgIU8IoAA7lXWMtfqDMvD4kvPVX+C3kFBShAAYMJMJAbbMDYXApQwOMC3ZtbMaRHoMfLZYEUoIDxBBjIdTJmecePIu2jd3TSGjaDAhSggPcEGMi9Z8uSKUABYwg0jLJgev8gYzSWraQABbwqwEDuVV71hWdtWIPsn79TfwHPpAAFKGBQAQZygw4cm00BCnhMIEA8Pj53RDCsfIzcY6YsiAJGFWAg18nIpc3/Fnmb1+mkNWwGBShAAe8JMJB7z5YlU4ACxhF4ZmAQYqpzpXXjjBhbSgHvCDCQe8e13KUmvfcmHKdPlPs6XkABClDAaAIM5EYbMbaXAhTwhsDI6wLQobHNG0WzTApQwEACDOQ6GCy5FXziizPgKijQQWvYBApQgALeFWAg964vS6cABYwh0KedDbd15krrxhgttpIC3hNgIPeereqS7RlpSJ47S/X5PJECFKCAkQUYyI08emw7BSjgKYE29awYczNXWveUJ8uhgFEFGMh1MHK5hw4g/bP3dNASNoECFKCA9wUYyL1vzBooQAH9C0SFWfDsEK60rv+RYgsp4F0BBnLv+qoqPWu9WGF9AVdYV4XFkyhAAcMLMJAbfgjZAQpQwEMC8+4PRgAfI/eQJouhgDEFGMh1MG5pC35E3vpVOmgJm0ABClDA+wIM5N43Zg0UoIAxBJ6+MwixkVxp3RijxVZSwDsCDOTecS1Xqcmfvg/74f3luoYnU4ACFDCqAAO5UUeO7aYABTwtMObGALRpyFvknnZleRQwkgADuQ5GK3HO83BmZuigJWwCBShAAe8LMJB735g1UIACxhAYcJUNN7TlSuvGGC22kgLeEWAg946r6lKdublIfPlp1efzRApQgAJGF2AgN/oIsv0UoICnBLo3t2JID6607ilPlkMBIwowkGs8avmnTiL1/Tc0bgWrpwAFKOA7AQZy31mzJgpQQN8CTWMsmNyPK63re5TYOgp4V4CB3Lu+ZZZ+fttmZH73VZnn8QQKUIAC/iLAQO4vI8l+UIAClRUIF1n85eHBlS2G11OAAgYWYCDXePAylv6GnOWLNG4Fq6cABSjgOwEGct9ZsyYKUED/Aq8ND0JIEFda1/9IsYUU8I4AA7l3XFWXmvrd18jftlH1+TyRAhSggNEFGMiNPoJsPwUo4EmBx24PRP2aVk8WybIoQAEDCTCQazxYSR//A45jhzRuBaunAAUo4DsBBnLfWbMmClBA/wIPXBuAjk249Zn+R4otpIB3BBjIveOqutTE11+EMz1V9fk8kQIUoIDRBRjIjT6CbD8FKOBJgTs62XBTe2595klTb5eVe+gAcnds9XY1pZYf2vEqBDdoVOo5fNMYAgzkGo6Ty+FAwgtPAC6Xhq1g1RSgAAV8K8BA7ltv1kYBCuhboFdLK+7qxq3P9D1KRVuXtW41sn/5oeiLPv6p6sBhqHJlJx/Xyuq8IcBA7g1VlWXa01KRPO9FlWfzNApQgAL+IcBA7h/jyF5QgAKeEWhbz4rRNzOQe0bTN6UwkPvG2Sy1MJBrONK5Rw8j/ZO/a9gCVk0BClDA9wIM5L43Z40UoIB+BepWt+CJgdyLXL8jdHnLGMgvN+ErFRdgIK+4XaWv5B7klSZkARSggAEFGMgNOGhsMgUo4DWBEHFz/LX7uBe514C9UDADuRdQTVwkA7mGg5+54nec//0XDVvAqilAAQr4XoCB3PfmrJECFNC3gAzkMpjzMIYAA7kxxskorWQg13Ck0uZ/i7zN6zRsAaumAAUo4HsBBnLfm7NGClBA3wJP3xmE2EiLvhvJ1hUKMJAXUvAbDwgwkHsAsaJFJH/2AeyH9lX0cl5HAQpQwJACDOSGHDY2mgIU8KLARLGoW3OxuBsPYwgwkBtjnIzSSgZyDUcq6e1X4EhK1LAFrJoCFKCA7wUYyH1vzhopQAF9C9zbIwBdmtv03Ui2rlCAgbyQgt94QICB3AOIFS0i4eWn4crNrejlvI4CFKCAIQUYyA05bGw0BSjgRYHbOtjQp0OAF2tg0Z4U8PdA3q9fP+Tk5OD7779HRESEJ+k0LevYsaMYNepBNG7cGB9++KGmbbm4cgbyizV8+L3LbkfCC0/4sEZWRQEKUEAfAgzk+hgHtoICFNCPQLdmVtzTk6u66WdESm+Jvwfy0NBQ5IqbhomJiYiOji4dw0Dv7tmzB3FxcejQoQO2bNmim5YzkGs0FPaMdCTPfUGj2lktBShAAe0EGMi1s2fNFKCAPgXaiOfHx4jnyHkYQ4CB3BjjdGkrGcgvFTH5z/lnTiH1n/NMrsDuU4ACZhRgIDfjqLPPFKBAaQINoyyY3j+otFP4no4EGMh1NBjlaAoDeTmwzHBq7sH9SP/8fTN0lX2kAAUoUESAgbwIB3+gAAUogKhwC54dzEBulI+CmQJ5tWrVsGvXLhw+fBjNmzdHixYtEBR0+WdVvm+z2dCwYUOcPn0amzZtQqdOnVC3bt0iw5qZmYl9+/bhyJEjaNCgAVq2bFnmc+r5+fk4duyY0gZ5vazjiiuuKHM6/aFDh7Bjxw6lDtl2WS+nrBcZDnP/cH7bZmR+95W5Edh7ClDAlAIM5KYcdnaaAhQoRSBYrOc2Z0RwKWfwLT0JmCWQ//HHH3jooYcg7yy7jzp16uDbb79Ft27d3C8pXwMDA9G0aVO8++676N27N1wul/L6J598gpEjR8LpdOKf//wnJk+erHzvvthiseDNN97AhIkTlUDvft399bvvvlPakJaW5n5J+SqvmzlzJmbMmIHg4KL/7vz88894/PHHi7S7a5cumPXii0rb+Ax5EUrz/pD1x0pk/zbfvADsOQUoYFoBBnLTDj07TgEKlCIw7/5gBHDns1KE9POWWQK5vOPdqlUrPPHEE6hVqxYWLVqEOXPmQIbhZcuW4dprry0cFBnIIyMjlVAt72Jff/31yvl79+5V7maPGTNGWdm8fv36SpCW4V3eJZflycAv33///aKzh2W4nzRpEuQvAR544AF07doVycnJWLBggbICvAz5H3/8sVg5fVRhO7Zv367cmXc4HHjhhReUa+Td9RdFGD916hQKCgq4qFuhlsm/yVi0ADmrl5pcgd2nAAXMKMBAbsZRZ58pQIGyBGYNCUJEmKWs0/i+DgTMEsjbt2+PFStWFJlS/tFHH2H06NHKHfJVq1bBarUqIyIDuV3sItW6dWusW7cO4eHhkFPN5fR2eae9R48eaNSoETZv3owaNWoUjmJ6ejq6d++uTIuX57nvvMtr5fZkMkQvXLgQffr0KbxGfvPss88qgbtXr15KG+Vr58+fR9u2bZWp7b/88gtuvfVW+bJyJCQkoGPHjkp5vEPuVjH517QfvkFe/AaTK7D7FKCAGQUYyM046uwzBShQlsCMAYGoXeNCuCnrXL6vrYBZAvlPP/2E22+/vQi2DMryrrl8Ztz9nLg8wR3Iv/76awwZMqTINQMGDMD8+fNR3HvyxHnz5mH69OkYOnQovvrqwiO9Mqj/+uuvkF/Hjh1bpDz5w/r165W73/KZdnkXXh6yPVdddRUuDunKG3/+Q96BHzduHO+QX4xi5u9TPv8IBQf/eh7DzBbsOwUoYC4BBnJzjTd7SwEKqBOYfIt4BrcOA7k6LW3PMksgl9PDL76b7VaXd8jlnfKLA7Y7kG/cuBGdO3d2n6p8lQu7yYXe5LPn8i75pYdcbG348OFK0N+9e/elbxf+nJGRoSzuJs+XYV0+ny4Xd5O/HJDH559/jvvvv1+ZEv/8888XXuf+hqusuyX4VRFIeu9NOE6foAYFKEAB0wkwkJtuyNlhClBAhcCo6wJwZWM+RK6CSvNTzBDI5fPZeXl5xVrLZ7PllPHZs2fjySefVM5xB/KzZ88iNja28Dr5PLlcqV3NIZ9Nz83NLVzFXbZh8eLF+PTTT5Vp8EePHi0sRk6Vl+9fHMgfe+wxzJ07V3kWXT6TfumRkpKCqKgo3iG/FMasPye99QocyYlm7T77TQEKmFiAgdzEg8+uU4ACJQoMuSYA3VsxkJcIpKM3zBDI5eJn8pnw4o5nnnkGL730Ev7xj39g/PjxyinuQH7pXXV5VzsiIkI554MPPlCmthdXpvu1YcOGKYFcrtI+ZcoUvPPOO8pbzZo1w4033oh27dpBPtseHhaG9ldeWSSQu58rl4vBTZgwwV1k4Vd3W/gMeSGJub9JfPU5OLMzzY3A3lOAAqYUYCA35bCz0xSgQBkCt3WwoU8Hsf8ZD90LmCGQyzvV8vnt4u5uy+nlX375pTJt/JZbblHGq6RALt90T1mXU8blvuNqjiVLlihblMkp83J1d7mn+cWH+325l7lcRV0eP/zwAwYOHKhsefbqq69efLryvXzWXD7/zkB+GY05X0h44Qm4SvitkzlF2GsKUMAsAgzkZhlp9pMCFCiPwA2tbRjQhYG8PGZanWuWQC63F+vbt28RZjntW25dJlc0P3r0CBo2bKS8X1oglyFZhmW5eNu0adOKlCd/+O9//4vXXntNWYldniMP97R4uW/5W2+9pbx28T/efPNNpSy5HduZM2eUtw4ePAh5J11OY5fh/9L9ybmo28WCJv/eJZ53SHjuMZMrsPsUoIBZBRjIzTry7DcFKFCaQPfmVgzpEVjaKXxPJwJmCeQy3C5fvlzZB1zSyynschq5nKp+aVAuLZC7Vz+X56xdu7bI3W4ZpuVda3k3/i0RsieL8uXhDtzyjvrOnTuV/c2VN8Q/5HZrcp9zudd4mJi6npWVpbwlnym/4447lH3KZaCXU+vlc+nykM+fy33Mz507xzvkiojJ/+HMyUHi7GdMrsDuU4ACZhVgIDfryLPfFKBAaQJXN7Zi+HUM5KUZ6eU9MwRyGb5lIM/OzlZWQI+NicH34i633Je8adOmWL16dZHF20oL5HLc3M+dy4Astx6T+4XHx8crK7XLhd/kPuPyLnpoaKgyzPJud1xcHOSz7DJ8Dxo0SLnjLev/5ptvcN111ym/LJDvy+vlvufySE1NRc+ePZV9zfv16wc5pV6GfvlceZMmTbBlyxYGckXK5P+wp6ch+fVZJldg9ylAAbMKMJCbdeTZbwpQoDSB9g2sePAmBvLSjPTynhkCuZzuvX//fiWMy5XO5SHDtNxWTE4rj4yMLDIcZQVyebKcAi+nrB84cKDw2pCQEDz11FPKnfdLn1dfuXKlsjibvEPuPuR0+Zdffhly8bd77rlH2UpNBnm517n7OHLkCCZNmqTUJ1+T7ZaBXk59l8+z8xlyt5SJvxYknEXKu3NMLMCuU4ACZhZgIDfz6LPvFKBASQIta1vw8K1BJb3N13Uk4O+B/FJqedf51KlTyp1xGaAre8jp6XIKuQzgMiAHBZX8uZfT0OUd7oSEBOXZ9ejoaNXVu69r3Lgxqlatqvo6X59oEUvKu3xdqdnryz9xDKkfvm12BvafAhQwqQADuUkHnt2mAAVKFWgUbcEjd5QcTEq9mG/6VMBsgdynuCasjIFcg0HPPXQA6Z+9p0HNrJICFKCA9gIM5NqPAVtAAQroT6B2hAUzBjGQ629kLm8RA/nlJnyl4gIM5BW3q/CV53fvQObXn1b4el5IAQpQwMgCDORGHj22nQIU8JZAVJgFzw5hIPeWryfLZSD3pCbLYiDX4DNwfutmZH7/lQY1s0oKUIAC2gswkGs/BmwBBSigP4EwkcVnDw/WX8PYossEGMgvI+ELlRBgIK8EXkUvzd68AVnzv6no5byOAhSggKEFGMgNPXxsPAUo4CWBACsw7wEGci/xerRYBnKPcpq+MAZyDT4CWRvXIft/32pQM6ukAAUooL0AA7n2Y8AWUIAC+hR4UwRyqwjmPPQtwECu7/ExWusYyDUYsaz1fyB7wfca1MwqKUABCmgvwECu/RiwBRSggD4F5t4XjCBuRa7PwbmoVY7sLDgyMi56xfffBlSvDmtoFd9XzBo9LsBA7nHSsgvMWrMK2Qt/LPtEnkEBClDADwUYyP1wUNklClDAIwJzRCAPZiD3iCULoYBRBBjINRipzFXLcX7x/zSomVVSgAIU0F6AgVz7MWALKEABfQq8NjwIIUEWfTaOraIABbwiwEDuFdbSC81c8TvO//5L6SfxXQpQgAJ+KsBA7qcDy25RgAKVFpg9LAhhIQzklYZkARQwkAADuQaDlbF0EXKW/6ZBzaySAhSggPYCDOTajwFbQAEK6FOAgVyf48JWUcCbAgzk3tQtoeyMJQuRs3JxCe/yZQpQgAL+LcBA7t/jy95RgAIVF3hpaBCqhvIOecUFeSUFjCfAQK7BmGUsWoCc1Us1qJlVUoACFNBOwGKzwRpTCwF1GqB6/7sua0hKpgvPfZt/2et8gQIUoIBZBF68JwjVqjCQm2W82U8KSAEGcg0+B+m//oTctSs0qJlVUoACFPCBgNhE1xpVE7ZadRAYUxsBNWPF11qw1agBSykb7ObbgR/WFWDtASecLh+0k1VQgAIU0JnArCFBiAhjINfZsLA5FPCqAAO5V3mLLzxtwXzkrV9Z/Jt8lQIUoIBRBCwWEbKjxF3vOgiIFXe+lfAdg8DompB3wyt6pGa5sHSHHav3OeFwVrQUXkcBClDAeALPDw5CZDgDufFGji2mQMUFGMgrblfhK9MX/g+5a5ZX+HpeSAEKUMDXAtaIGuKOt7jbLUN3bKy4613rQvAO9N6GuRnnXVi2w4GVex0ocPi6x6yPAhSggO8Fnrs7CDWqMpD7Xp41UkA7AQZyDez5DLkG6KySAhRQJWCtWg222Drib3HHu2ZtMdVchu+asAaHqLreGydl5biwfJcDK3Y7kCemtfOgAAUo4K8Cz94VhKhqDOT+Or7sFwWKE2AgL07Fy69lLP4VOauWeLkWFk8BClCgZAFLaJjyjLdN3PEOVO54y+e8Y2ENrVLyRV54x+VywSKmvqs5zue5sEqE8qU7HcgpUHMFz6EABShgLAEGcmONF1tLAU8IMJB7QrGcZWQs/U3sQ76onFfxdApQgALlF7CIO9vWWDnN/M/p5iJ0B9aMgS28avkLq8QVMnjn2HOQkpuC41knsDd1LzYlbkC+Mw9T2j2CNjXiRDC3qqohV4TxP3bbsURMZ8/mouyqzHgSBShgDIEXxDPk1fkMuTEGi62kgIcEGMg9BFmeYjKWLUbOsoXluYTnUoACFChVwCKe5b6wuJoM3nKBNTHVPCYGAdWql3qdp9+UwTvPkSeCdypOZp/CPhG845M2ixB+sNSqwgOrY1LbR9CxZnvVwTxfBPO1++xYvN2JjFwuy14qMN+kAAUMIcB9yA0xTNgj/t+2/uwGTRvbo3Z3NK3eRNM2sHLPCDCQe8axXKVkrlyK80sWlOsankwBClBACrj38pZTzeUCa+7p5raI6qVuKeZpPRm88x35SM9PF8H7NA6mHsCW5M04mL6rUlWF2sIxoe00XB3bGVaVd8ztYsG39fsdWLTNgVSxEBwPClCAAkYVeOXeIFQJVvcYj1H76A/t/t/RBfhs73uaduXh1o/ghvrXa9oGVu4ZAQZyzziWq5TMVctwfvHP5bqGJ1OAAiYTuGgvbyV4K3t5xyrbjJW2l7enlWTwLnDakSGC95nssziQdgDbUrZhd0o8XPDenmRBlmCMbz0V3epcA5tV3RZqdtGczQcd+G2rA0li6zQeFKAABYwmMOe+YAR7b/MKo3Hotr0M5LodGkM2jIFcg2HL+mMlsn+br0HNrJICFNCdwGV7ecvVzcVz3lHRsAQE+Ky5Mng7XDJ4Z+Ls+QQczjiEbUnbsCN5E+wu7VZQC7AEYnTcRFxbtxcCrOo8nCKYxx92YKEI5ucyGMx99iFiRRSgQKUF5j0QLP5bV+liWICXBRjIvQxssuIZyDUY8Ky1q5D9648a1MwqKUABLQWsEZHKyuZ/7eUtgnd0DOTz3746LgRvJ7IKspCQI4J3+mERundga/IG8ex3jq+aUe56rLBhZMtxuKn+jQi0qfMSv2PAtiMX7pifSmMwLzc6L6AABXwu8PaoYJ/XyQrLL8BAXn4zXlGyAAN5yTZeeydr/RpkL/jOa+WzYApQQFuBont51xLbicm73r7fy9vpksE7G4k5iTiWcQw7U3ZiS9J68Vq6tkCVrH1489Ho2/AWBNmCVJUkg/nu4xfumB9LZjBXhcaTKEABnwvYxKPjb4xkIPc5fAUqZCCvABovKVGAgbxEGu+9kb1pHbJ++tZ7FbBkClDAJwIWsWe3rVZd2ETgDoz9c6q5Jnt5O5EtthRLzklWgveu1N3YLIJ3Wl6iTxy0qmRw4xG4vfHtCA0IUd2EfSec+G2bHQcTGMxVo/FEClDAJwLB4qmcOSMYyH2CXclKGMgrCcjLiwgwkBfh8M0P57fHI/O/X/imMtZCAQpUWqDoXt5ySzERwDXayzvXkasE7xPZJ7EnZY+yl3dCzslK99HIBdzRcAgGNb0TYYFhqrtx6IxTPGNux74zDOaq0XgiBSjgVYEwMeln9nAGcq8ie6hwBnIPQbIYRYCBXIMPQs7e3cj46mMNamaVFKBAaQJ/7eUtQ7fcVkzbvbxT81JxIkv9Xt6l9c0M7/Wp3x/3NL8HVQPDVXf3WIII5vEO7DrlvRXjVTeGJ1KAAqYWqBZiwYvD1D2KY2ooHXSegVwHg+BHTWAg12Awc48cQvq//qFBzaySAhSQAspe3jVrwRYrQ/df08212Mu7wFkgppan4ZTYy/uAh/byNvsoX1unD+5rcR+qB0eopjiZ6FT2Md96nMFcNRpPpAAFPCoQFW7Bs4MZyD2K6qXCzBzIFyxYgHnz5uHOO+/ExIkTvSRsrmIZyDUY7/yTJ5D6wZsa1MwqKWAyAbGlmFWsYm6LrYMAEb4DNd/LO0Ps5X0GB9MPiVXN472+l7fJRvuy7naNvQ6jWo1EZHAkLOKzoOY4myqCudgubdMRBnM1XjyHAhTwnEC9GhY8PoCB3HOi3ivJzIH8008/xciRI/Hoo49izpw53kM2UckM5BoMdkFiAlLeeVWDmlklBfxXwFoj+s/gfeEZb+328naIvbwziuzlvTN5Cwpcef6Lr/OedYi+BqNbj0bNELG3u8pgnpjuwmKx+Nv6g07wKXOdDzCbRwE/EWhey4KJfRnIjTCcZg7kmzZtgrxL3qlTJ/Tr188Iw6X7NjKQazBE9vQ0JL8+S4OaWSUFjC+g7OUtp5ord73FM97yrrdGe3lni728z/25l7fcUmxr0kbkOrKNj+ynPYir0QHjW49HrSq1VAfz5EwXlohgvvaAE04mcz/9ZLBbFNCHQPsGVjx4U6A+GsNWlCpg5kBeKgzfrJAAA3mF2Cp3kTMnB4mzn6lcIbyaAn4uwL28/XyANexe04jWmNhmIuqG11UdzNOyXFi6w45V+5xwcDa7hqPHqingvwJdm1oxrBcDuRFG2N8D+eHDh2Gz2dCwYUOcPn0a8q64vCNet25dpKenIykpCdWqVUPNmjWLHS55zoYNG5AjMk+jRo3Qtm3bEv9/m5mZiX379uHIkSNo0KABWrZsiYgI9WvAFNsAg73IQK7BgLkcDiQ8/7gGNbNKCuhPQNnLW9ztlgus6Wkv7z1pckux9UjNS9AfGlvkEYEG4U0xud0UNKzasMQ/KFxaUUaOC8t3OLBijwMFjkvf5c8UoAAFKi5wXSsrBl7DQF5xQd9d6e+BPDAwEE2bNsW7776L3r17w+W6MEXsk08+Uf5/WdIz5Pv378fo0aOxcuXKIoNx/fXX47333kPz5s0LX3c6nfjnP/+JyZMnQ37vPuSjZW++8QYmiAXj5C8FzHAwkGs0yjKQy2DOgwJmEbAEB8P65+JqcmVzPe3lvSVxE87mHDfLULCflwjUrtJQBPOpaBrRRHUwz851YcUuB5btdiCv4JIC+SMFKECBCgjc2t6GWzsFVOBKXuJrATME8sjISCUQyzvYMlAvWrQIe/fuxYoVK4pd1O3MmTPo3r27cqd73Lhx6Nu3L7Kzs/HZZ59h4cKFaNy4sXLXPCoqShmuMWPG4MMPP0T9+vUxc+ZM5RcA8i65XChuz549kO+///77vh5aTepjINeEHUiYPROuHD5rqhE/q/WigCUgQATvuuIZb33t5b0/dT+2iGe8j2cd9GLvWbSRBaJDaolgPh2tIluoDuY5eS6sEnfLl+504Hy+kXvPtlOAAloL3HmVDde3ZSDXehzU1G+GQG6329G6dWusW7cO4eHhyM/PR1BQEEpaZf2arl2xbv16vPXWW8pdb7ejvPt9zTXXKGH87bffxqRJk/DHH3+gR48eynT2zZs3o0aNGu7TlSnxMtjv2rVLOa9bt26F7/nrNwzkGo1s4huz4UxN0qh2VkuBygsUu5e33GKsuthiymqtfAUqS5DTqC7dyzterGp+IH2nyhJ4GgWKCkQER2Ny20fQLqq1CObqPsvyLvnqPXb8vt2BLAbzoqD8iQIUUCUwtHsArmlhjim6qkB0fJJZAvnXX3+NIUOGFBmJ4gL52bNnUbt2beUZcDltPVjMirz4WLt2LX788Uf07NlTWZl9wIABmD9/PoorX14n9zmfPn06hg4diq+++uriovzyewZyjYY16cN34DhxVKPaWS0FyiEgnuXhXt7l8OKpfiMQHhiBiW2noWPNDrCqDOYFdmDNPrtYmd2JdDGtnQcFKEABtQIjrwtAh8YM5Gq9tDzPLIF848aN6Ny5cxHq4gL58uXLlWntI0aMUKaoF7mgmB/k4nBysbhvv/1WuUt+6Slykbfhw4ejVatW2L1796Vv+93PDOQaDWnKV/9CwV7ewdOIn9WWIKC3vbzPnU/AoYxD2JG0HduTN3Mv7xLGjS97VyDEFoYJbafi6pirYVM5+8MulgjZcMCBRdscSMlmMPfuCLF0CviHwITegWhRX92sHP/osXF7YZZALu98x8bGFhmo4gK5XPxNTkX/29/+hhdeeKHI+Zf+IJ9Jlyu0qznkAm+5ubnKVHk15xv1HAZyjUYubf63yNu8TqPaWa3ZBYrs5R0Tc2GBNY338j6ScRQ7krdzL2+zfzh13P8gSzDGtp6C7nW6IcCq7i6W3CJt8yEHftvqQKLY05wHBShAgZIEpvcLRMMYBvKSfPT0ulkCeXJycpHnu+UYFBfI3xbPjU+ZOhVPPvkkZs+eXepQZWRkFG5r9sEHH0Cu6F7aMWzYMAby0oD4XsUFMpYsRM7KxRUvgFdSQIWANbwqbLXqii3FxAJrNWshUK5uLvaMtAaHqLjac6c4XU5kFWQjKScJR0Xw3pmyUyywtl68lu65SlgSBXwkEGAJxIOtJuD6er1EMC/9DxLuJskdXeIPXwjmZzMYzN0u/EoBCvwl8NzdQahR1fLXC/xOtwIM5CPx6KOPKiuiy0H66aef0L9/f9x777344osvLhs3uSCcPEfua37VVVcp+5nLKetyNXW577jZD94h1+gTkLVmFbIX/qhR7azW3wQu3stb2U4sJlaE71hYQ6v4tKsuEbyz7TlIzknG8Yzj2J22m3t5+3QEWJkvBcTqCnig5Vj0rt8bQTZ1wVxu5brzqAO/iDvmp1IZzH05XqyLAnoXmHtfMILU/adE713x+/YxkBcN5DJYx8XFKXfTjx49iqpVqxb5DKxZs0bZEu2mm27C4sWLMXDgQPzwww/K4m3Tpk0rcq784b///S9ee+01ZSV2ucCbvx8M5BqN8PntW5D53y81qp3VGlWgcC/vmNp/bism7nrXFCubizvhvjzkyua5jlyk5KaIbcROYE/KHnAvb1+OAOvSm8CwpqNwW6O+CA4ourJsSe2UwXzPCQd+jXfgWDKDeUlOfJ0CZhEIFrudzRmh7r8fZjHRcz8ZyIsGcjlWcmr5f/7zHzz11FOYNWsWrH+uuZKTk6PcPZdB/OOPP8aoUaOwadMm5U65nK4uV2Dv1KlT4XDL/czlYm7p6el46803MXnKlML3/PUbBnKNRjb34H6kf26Oze41IjZ0tcpe3jF1EFBLBG85zVz5WzzrXa26T/slg3eeIw+peak4mXUK+7iXt0/9WZnxBAY1Ho4Bje9AaECo6sbvP+nEwq12HExgMFeNxhMp4GcCNcVU9b+JKes8jCHAQH55ID9y5Ai6dOmCxMRE3Hzzzejbty+OHTuGjz76CHIhtzvuuAPff/89bLYLa7A888wzeOmll8T2ohaMGzcObdu2RXx8vLIVmjy/T58+yl300FD1/z81xqfn8lYykF9u4pNX8s+cQuo//X8Khk8wDVxJ4V7eMnDH1kagfNabe3kbeETZdApcEOjX8C7c3fQuhAWGqSY5fMYpFn+zY88ZBnPVaDyRAn4i0CzWgkm3MZAbZTgZyC8P5HLsZBiX+4d/+eWXcMrFU8Qh75Q/99xzkFPTw8PDldfc/1iwYIHy+oEDB9wvISQkRLnLPkXcGVe7GnvhxQb9hoFco4Gzp6ch+fVZGtXOan0uIPfyjhJTy2uJu94yeNe88Iy3rUYULCq3UfJEm+Udb7vTjvT8DJzJPoOD6YewNTkeu1Pi4cKF/3B6oh6WQQEKXBDoXe92DG0+FNWC1D9WcizBiUXiGfMd4s45DwpQwBwCHRuJNSlu4APkRhltfw/klR0HuYjb4cOHlTDeqFGjMldJl9PT5bPnMoDLPcqDgsz1yykG8sp+4ip4vaugAAmznqzg1bxMzwIX9vKWz3j/Od1chu+oaMhp6L46ZPB2uBzILMjE2exz3MvbV/CshwIlCPSs1RsjWo1A9aAIZXpeCacVeflUkrhjLvYx33qMwbwIDH+ggB8KXNfKioHXMJAbZWgZyI0yUsZoJwO5huOU8OIMuMRvkHgYU0Ave3lf2FIsC+dyEsC9vI35WWKrzSNwdUwvPBj3IGoER6oO5mdTnVgsgvnGwwzm5vmksKdmE7ijkw03tffdL+7N5uvp/jKQe1rU3OUxkGs4/onvzoUz4YyGLWDVagTkXt7W2AtTzd1bisnnvK3iGRdfHjJ4Z4u9vBP/3Mt7V+oubE6Ue3mn+bIZrIsCFPCAQPuoLhjbegxqhtZUHcwT011Yss2OdQed4hETHhSggD8JDO8ZgKubXVjsyp/65a99YSD315HVpl8M5Nq4K7WmfPExCvbv1rAFrPpigWL38hbTza1VuJf3xU78ngIU8JxAq8gOGN96PGqH1VIdzFMzRTDfbsea/U7xaIrn2sKSKEAB7QTG9w5Aq/oM5NqNQPlqZiAvnxfPLl2Agbx0H6++m/bzD8jbsNqrdbDwywUu28vbvcCaxnt570vdh00JG3A25/jljeYrFKCAXws0iYjDhDYTUT+8nupgnp7twtIdDqza6xCLNfo1DztHAb8XeOKOQNSNtvp9P/2lgwzk/jKS+ugHA7mG45C5ahnOL/5Zwxb4d9XF7uVdU+zlHaH9Xt7xyZtxLHO/fw8Ae0cBCpRboF5YY0xuNxVXVGukOphn5riwfKcDK/Y4kG8vd5W8gAIU0IHA7GFBCAux6KAlbIIaAQZyNUo8R60AA7laKS+cd357PDL/+4UXSjZXkZfu5a085y2Ct626WDTJx1uKFTgLkJaXhlPZp3Eg7SDikzbjQPpOcw0Ie0sBClRaoFZoA0xuPxXNIpqqDubZuS6s3OXAst0O5BZUugksgAIU8JFAsFjLbc6IYB/Vxmo8IZCQk4jTWac9UVSFy2hQtT5qhNSo8PW8UD8CDOQajkXesSNI+/hdDVtgsKov3ss7phYC5d8yeMstxXwcvAv38j4v9vJOO4RtyVuVvbzFE50GQ2VzKUABPQtEhdTC5LbTEFejlepgnpvvwipxt1xOZ8/mRh56Hl62jQKKQN3qFjwx0Fz7LnPoKUCBvwQYyP+y8Pl39rRUJM970ef1GqHCInt516yFgBjt9/I+nHEY25O2YbuYbl7gyjMCI9tIAQr4iUC1wBpiKvsjaB/dVgRzdc+Z5om75Gv22sUCcA5k8j9ZfvJJYDf8UaB9AysevIl7kPvj2LJPFFAjwECuRslL57gcDiS88ATgMu8yuYV7ecfURkBsrAje4q53tNgGKNB3vyl2CX/3Xt5yCtLhjCPYlbwTW5LWI9eR7aXRZ7EUoAAFyi9QJaAaJoo75p1jOsKqMpgXiOfK1+23Y9E2J9LF8+Y8KEABfQnc0NqGAV3EvHUeFKCAKQUYyDUe9sS5s+DM8P99pPW5l/cx7Erdyb28Nf53gNVTgALlFwi2heLhNtPQNbYLbCof2bGLJ2o2HnRg0VYHksUK7TwoQAF9CNzV1YZecQzk+hgNtoICvhdgIPe9eZEakz56F47jR4q8ZuQfuJe3kUePbacABYwmEGgJxti4SehRtzsCrOr+QO8QW6RtPuTAbyKYJ4o9zXlQgALaCoy7KQBxDbgHubajwNopoJ0AA7l29krNqd/9B/nbNmncivJXr+zlrUwzryOmmotnvHWwl/eJrJPYm7qXe3mXfzh5BQUoYHABK2x4MG4Cbqh7HQJt6p5FdYpgvvXIhWB+Jp3B3OAfATbfwAIzBgSidg11a0MYuJtsOgUoUIIAA3kJML56OWPF78j5/RdfVVfuegr38o6Vz3jLxdVk+BYrm1eLUL3ib7krLeYC+Zx3niMPqWJLsZMieO9L3Q/u5V0MFF+iAAVMLWCBFSNajkGf+r0RZFO3FodcxmTnMQd+FXfMT6YwmJv6A8TOayLw2vAghARxD3JN8FkpBXQgwECu8SCc37kdmf/3mcatAJS9vKNjYVOCtwjf7i3FNNzL+3T2GexPO8C9vDX/dLABFKCAEQXuaTIS/a7oi5CAENXN33NC3DGPd+BwEoO5ajSeSIFKCFQRvzd7ZTj3IK8EIS+lgOEFGMg1HsL8s6eR+o/XfdcK917efwZv7uXtO3rWRAEKUEALgTsbDcPApgMQGhCquvoDp51YGG/HgXMM5qrReCIFKiDQIMqCR/urm81SgeJ5CQUoYAABBnKNB8mZn4/EF2d4pRXWyGjYasmp5uJv7uXtFWMWSgEKUMAoAn0bDMTgZoMRHhimuslHzjrF4m927D7NYK4ajSdSoBwCXZpacW8vdes+lKNYnkoBChhIgIFcB4NV2a3PlL285bPdsXKBNbGXt1xgTTznrcle3vYsJJznXt46+FixCRSgAAWKFbih7m0Y3mIYqgVVK/b94l48kSiDuQPbT4iV4HhQgAIeE+jfyYYb26vbIcFjlbIgClBAVwIM5DoYjpTPP0TBwb1ltoR7eZdJxBMoQAEKUEClQLdaN2Jkq/tRPai66kU6Tyc7lX3MtxxjMFfJzNMoUKrA2BsD0LohtzwrFYlvUsDPBRjIdTDAaQvmI2/9ysKW6Gkv7/P2HCTlJON4xnHsTt8jthRbJ1Y6TyhsK7+hAAUoQAFjC3Su2QMPxT2IqJAo1cH8XKoLi7fbsfGQE5zMbuzxZ+u1FfjboCDUjOAK69qOQvlrPylmDR0Qj/RoebSqZ0WtSG6Xp+UYeKpuBnJPSVainNwjh2A/d+bPlc3FSudVq1aitPJfKrcUy3XkIiU3Be69vDcnbsSZ88fKXxivoAAFKEABQwq0qdEZ41qPQ2wV8ciTWABUzZGU4cKSbXasPcBgrsaL51DgYgGb+Nfs9fuDYWWmupjFEN+v2GXHd+sdmrZ1eM8AXN2Msys0HQQPVc5A7iFIIxRz6V7e+1MPYEvyJhzL3G+E5rONFKAABSjgA4EW1dvi4TYTUSestupgnprpwu877PhjnxMO3jL3wSixCn8QqFPdgicHcoV1I44lA7kRR02/bWYg1+/YVLhlMngXOAuQlpcG917e25K3YF/ajgqXyQspQAEKUMBcAo2qtsCktpPRoGp91cE847wLS3c4sGqvAwXa3jwy12Cxt4YU6NTIivtv4ArrRhw8BnIjjpp+28xArt+xKbNlMnjbnXak52eI6eVncCj9MLYmxWN3SjzEPYoyr+cJFKAABShAgbIE6oZdIYL5FDSJaKw6mGfluLB8lwMrdjuQZy+rBr5PAXMK3NbBhj4duMK6EUefgdyIo6bfNjOQ63dsClsmg7fD5UBmQSbOnT+nBO8dyTuwLWkjClx5hefxGwpQgAIUoIC3BGqG1sGUdo+gRfXmqoN5dq4Lq0QoXybCeU6Bt1rGcilgTIEHrwtA+8Z8BtiIo8dAbsRR02+bGch1NDYyeDtdTmT9uZf3kYyj2CmC95ak9WLRtWwdtZRNoQAFKEABswpEBsdgcrtpaFMjTgRzdatR5ea78MceB5aI6ezZ+WaVY78pUFTgqTsDuUp2URLD/MRAbpihMkRDGch1Mkw7k3di7tZXkVWQppMWsRkUoAAFKECBkgXCA6uLYD4dHaLbqQ7meeIu+dp9dizeJmZ9cYJXybh8x+8F5D4GcoX1AN4gN+RYM5Abcth022gGcp0MzYG0g5ixbppOWsNmUIACFKAABdQJhNrCMbHtI7gqthOsKu+YF4jnyjcccGCRCOapYiE4HhQwm0DdSAueuJMrrBt13BnIjTpy+mw3A7lOxiXXnov7lgyGS/zFgwIUoAAFKGA0gWBbKMbHTcE1tbvCZlV328/uBDYdFMF8qwNJWfz/n9HGnO2tuEC3Zlbc05MrrFdcUNsrGcjL9u/fvz+ysrLw7bffokaNGmVf4OMznE4nzpw5g7p16/q45surYyC/3ESzVyaseBjnck5oVj8rpgAFKEABClRWIMASiDFxk9Crbk8EWNWtIC3+XIQthxz4TdwxP5fBYF7ZMeD1+hcYck0AurdS94sr/ffGfC1kIC97zKtVq4bMTLEg9blziImJKfsCH56xe/dujB07FsOHD1e++rDqYqtiIC+WRZsXX4+fh7XnlmlTOWulAAUoQAEKeFDAChtGtRqPG+vdgECbujuBYm1TbDsigrm4Y34qjcHcg8PBonQmML1fIBrGqFsUUWdNZ3OEAAN52R8DPQfy5557Ds8//zzee+89BvKyh9JcZ3x/6Ed8deBjc3WavaUABShAAb8XuK/5GNzasA+CbOqemZXBfNdxBxaKYH48mcHc7z8gJuugXNBt7ohgBKqbQGIyHWN0l4G87HFiIC/byH0G75C7JXTwdWviNry4+RkdtIRNoAAFKEABCnheYHCT+3HHFf0QEhCiuvC9J5zijrkdhxIZzFWj8URdC9SpbsGTA9X9ckrXHTFx4/w1kGdkZCAxMRFVqlRB7dq1i4yww+HA0aNHldeuuOIKWK1FZ3icOnUKubm5yjPZISEhuDiQR0dH49ChQ9i1a5cyfb19+/YICwsrUv7FP8jnu48fP469e/fCbrejVatWKK7Oi6/Jz8/HsWPHcPjwYWWqfMOGDZVrZN3uQ5Z75MgRvPXWW3jnnXfwwgsvYNiwYYiMjNT0OXcGcvcI6eBrWl46Hlo2XActYRMoQAEKUIAC3hPo32gIBjUZiCqBVVRXcuiMEwvj7dh3lsFcNRpP1KXANU2tGNpL3WMcuuwAG+W3U9a3b9uG9ldeiRYtWihh+OKh3rhxI66++mrlpe3bt6Nt27aFb8ugW6dOHSXMp6amKmHcHcg3bdqERx99FMuXLy8832Kx4O2338bEiRMLX3N/I4P7qFGjsHLlSvdLytdu3brh008/RbNmzYq8Ln/47rvv8NBDDyEtrej20bKemTNnYsaMGQgODkZKSgqioqIuu/7ll19WzrnsDR+9wEDuI2i11Yxa+gAy8pPVns7zKEABClCAAoYVuKX+nRjSfDCqBoar7sPRc/KOuQO7TomV4HhQwIACd3e1oWcc56sbcOgKm+yvd8hlsG7UqBFOnDih3EmW37uPuXPn4rHHHlN+vPTZ6/j4eHTs2BF33XWXsqq6PMkdyIOCgpQ71XIBNXnX+v/+7//w888/K+V8/fXXGDJkiPK9/Ie8gy7LkXe7x4wZgzvuuEO5E79kyRLMmzcPgYGB2CZ+aSDvmLuPd999F5MmTVJ+IfDAAw+ga9euSE5OxoIFC/D9999D9unjjz9WQn5eXh6++eYbJcD/9NNPuO+++3DTTTehTZs2Sr3uMn39lYHc1+Jl1PfaljnYkFD0N0JlXMK3KUABClCAAoYWuL7OrRje4l5EBEeo7sfJRBHMxars244zmKtG44m6EHjktkA0ii063VcXDWMjVAv4ayCXAI8//jjmzJmDzz77DCNGjCg0ufHGG7F69WolLA8ePFgJtu435fnyun//+9/KyuXydXcgb9mypXK3u2bNmu7TlXA9ffp09OnTBwsXLlRed4nFQ/r27av8LKeTX3r3/F//+pcSqm+77bbCQC+De+PGjSGny8tyZHkXH88++6wyLb1Xr15YsWJF4Vtc1K2Qgt8UJ/DT4Z/x+f73i3uLr1GAAhSgAAX8WqBb7A14oNX9iAyOhJxqqOY4k+JU9jHffJTBXI0Xz9FeYM59wQjmjHXtB6ISLfDnQC6nll9//fW499578cUXXyhKciq4fM5aTgtfunQpTp8+jfT0dMi73/KQ08nXrl2r7Otdq1Yt5TV3IJf7kMs75xcfe/bsQVxcnHI3Xj7TLQ/3lPimTZti3759lz2jfv78eaUNMoTLu+Tt2rVT2vDrr78qX+U2Zpce69evV+6YXzoFn4H8Uin+XERgX+p+PL1+epHX+AMFKEABClDATAKdorvhodYPITokWnUwTxDbpC3ebseGg07wKXMzfVqM1dfaERbMGMQF3Yw1ape31p8DuVyYTYZvuWibfB5chm559/nWW2/Fl19+iVWrVinbhckA3blzZyWc161bVwnxMqy7D3cg37JlCzp06OB+WfmakJCA2NhYZWG3rKws5bWvvvpK+SVAv379IO9sF3fIZ8Hl9PUffvgBAwYMKO4UyIXp5OJuMtTLsP7JJ58oU+blYm/ug4HcLcGvxQoUOAowfPHdcIi/eFCAAhSgAAXMLNC6RieMaz0OtarEqg7myRkuLBHBfO0BJ5xM5mb++Oiy7z1bWHF3d94e1+XglKNR/hzIJcPIkSOVBdTWrVuHLl26FE5jl3ez5WtDhw7FW2++iclTpighXT4fLp/lnjBhQqGiO5CfOXMG7rvm7jflSu4xMTHKau7Z2dnKy7NmzVIWYHOfU9pX+Tz5tGnTlFPkM+KLFy8ubK97JXj5pvylgnxfrtDOQF6aKN+7TODxNY/jcMaey17nCxSgAAUoQAEzCjSLaIMJbSagbnhd1cE8LcuFpTvsWLXPCQdns5vxY6PLPt/fKwCdmtp02TY2Sr2AvwdyuWq5nGb+6quvKmFcPgcutz07cOCAsh2ZXJxN3sn+3//+p9zVlne35Xtyurn7cAfyc+fOKeHb/br8Wlwgl1uQyTvjAwcOxO23337x6Zd9Lxdhk3fn5XPnU8QvBeQz5/KQK7DLZ93ldHa5tVq42FpNrhrPQH4ZIV8oS+CT3Z/il+PflXUa36cABShAAQqYSqBh1eaY1HYSGlZtqDqYZ5x3YdlOB1bucaCAk89M9XnRY2efuzsINaqqWx9Bj+1nmy4I+Hsgd28PJhdDkwu1yQAu70jLO9PykKucywAup57Lu98ysMut0C4+yhvI3VPW5d15Oc1czSGnr/fu3VvZQ3zRokXo1KlTkcvc7zdo0ECZxu5+k1PW3RL8WqLA2rPr8PrWl0p8n29QgAIUoAAFzCxQu0pDTGk3FU0imqgO5tm5LiwXwXy5COZ5BWbWY9+1EogIsWDWMD4/rpW/J+v190AureQz4/LZcXn3WW4rNn/+fGUbMvmeeyV2+Uz37Nmz8dJLL+Gpp56SbxUe5Q3kcr/yq666CtHR0UrYr169emFZ8hv5bHv//v2Vaejybro8131XffLkyXjrrbeKnC9/eFNMq5e/SJC/NJBT592H+7q///3vePjhh90va/aV255pRl9yxcm5KRi7/P6ST+A7FKAABShAAQqIRd9qiWA+HS0jW6gO5jl5Lqzc7cBSEc5zGMz5KfKhQOcrrBhxPZ8f9yG516oyQyB///33MW7cOMhgLFdZv3jq+S+//AK5/ZjcDUNOG9+8efNl+3iXN5DLwZLT1eWCbaNHj1Z+ERAcHFw4hs8//zzkne2qVasq4TpMTEd3B255h37nzp2w2f56HEQuPidXi5dT7eW57sXjZIHubdqeeOIJvPLKK4V1aPUNA7lW8mXU+9CyUUjLSyzjLL5NAQpQgAIUoED14JqY3PYRtI2KE39AVLe/c64I43/ssYsF4BzIzqchBbwvcHdXG3rGBXi/ItbgdQEzBHK5CFqTJk0US3k3esOGDYWu7int8gW5wvrx48cv26asIoH80KFD6NGjB86ePauszH733XcjMDAQ33//vbKtmvwFgFw53b3f+MGDB5Xt0woKCpTwPWjQIMgQL/cc/+abb3DddddBbuMm38/MzER4eLjSB7kVm9xLXZbXs2dP5RcB8ll0rQ4Gcq3ky6h3TvxcrD/31wb2ZZzOtylAAQpQgAKmFwgPjBDPmD+CDjWvhFVlMM8XwXztfjsWb3MiQ0xr50EBbwk8cUcg6kar+4WRt9rAcj0jYIZALqWuFAuiyT2/Z86cCXmH+uJDBtnVq1fjsccew2uvvXbxW8r3FQnk8kIZ9uVUePkcud1uLyxXhmu5ErsM7BcfK1euVFZ3l3fI3Uf9+vXx8ssvY9iwYbjnnnsgA/jFW6XJcuU0/I8++kipw71Anft6X39lIPe1uMr6fj36Gz7e+67Ks3kaBShAAQpQgAJugRBbGCa2nYarY69SHcztYsG3DQcc+G2rA6liITgeFPCkQLC4Mf7q8GBxF9GTpbIsrQTMEsi18pX1yqnm8s57pthXvG69eoiKiiqxOXJrM/mMuFxkToZx+Ry6mkPeOU9KSlLOl3fitToYyLWSL6Pek1mnMHX1uDLO4tsUoAAFKEABCpQkEGQJFvuYT0G3Ot0QYP3r2cKSzpev28UWaZsPXgjmSWLrNB4U8IRAXB0Lxt3CBd08YamHMhjI9TAK/tMGBnIdj+XIpSOQmZ+q4xayaRSgAAUoQAH9CwRYAvFQqwm4rt61Ipire4ZX3HBB/OELwfxsBoO5/kdZ3y3s19GGm69U99nTd0/YOinAQM7PgScFGMg9qenhsuZtfRNrzv7u4VJZHAUoQAEKUMCcAhZYMbLlONxU/yYE2dRNTxQLCGP7UQcWiqnsp1IZzM35yal8r6feGojGtTlfvfKS+iiBgVwf4+AvrWAg1/FI/n5iKf656w0dt5BNowAFKEABChhT4N5mD6Fvw1sQHPDXtjql9UQG8z0nHPg13oFjyQzmpVnxvaICgeJpiVfvCxazM4q+zp+MK8BAbtyx02PLGcj1OCp/tikhJxEPrxil4xayaRSgAAUoQAFjC9zV+D70b3wHQgNCVHdk/0mnuGNux8EEBnPVaCY+sW09K0bfrG5GhomZDNV1BnJDDZfuG8tArvMhGrd8NJJyz+q8lWweBShAAQpQwNgCtzccjLuaDkRYYJjqjhw64xSrstux9wyDuWo0E554l9h/vBf3H/erkWcg96vh1LwzDOSaD0HpDfj7jn9i2alfSj+J71KAAhSgAAUo4BGB3vXvwNBm96BaUFXV5R1LkMHcgZ3izjkPClwq8PSdQYiNtFz6Mn82sEBCmgsnk3XPW9oAADlySURBVLX9971hjBVRVfm5MvDHqLDpDOSFFPr8ZvWpNXhzx2x9No6togAFKEABCvipQK/aN2NEyxGICKoGi0XdH3pPJYlgvs2Brce0/YO6nw6JIbsVEWLBrGHc7syQg8dGU8BHAgzkPoKuaDVpeel4aNnwil7O6yhAAQpQgAIUqIRAl5hrMSpuFGoER6oO5mdTnVgs7phvPMJgXgl6v7i0a1MrhvXi8+N+MZjsBAW8JMBA7iVYTxY7edUknM4+6skiWRYFKEABClCAAuUQuDK6K8bEjUbN0Jqqg3liuguLt9mx/qATfMq8HNh+dOoD1wagYxOxzDoPClCAAiUIMJCXAKOnlz/f8wV+OvaNnprEtlCAAhSgAAVMKdAqsgPGtx6P2mG1VAfzlEwXlmy3Y81+J5xM5qb63Lw0NAhVQ9U98mAqGHaWAhQoFGAgL6TQ7ze7U/Zg5obH9dtAtowCFKAABShgMoEmEXGY0GYi6ofXUx3M07Nd+F0E89X7nLBzNrvff2LqioXcnhALuvGgAAUoUJoAA3lpOjp5z+F04P7f70WuI1snLWIzKEABClCAAhSQAvXCGmNKu6loVK2R6mCemePC8p0OrNjjQL6djv4q0LutDbdfFeCv3WO/KEABDwkwkHsI0tvFzIt/A2vOLfV2NSyfAhSgAAUoQIEKCNQKbYDJ7aeiWURT1cE8O9eFlbscWLbbgdyCClTKS3QtMOXWQDSpbdV1G9k4ClBAewEGcu3HQFULVp5chbd3vqbqXJ5EAQpQgAIUoIA2AlEhtcQd80fQKrKl6mCem+/CKnG3/PcdDpzP16bdrNWzAqFiYfXZ9wbDyjzuWViWRgE/FGAgN8igZhZkYdTvw8QqrVwNxiBDxmZSgAIUoICJBSKCozG57TS0i2ojgrm6VJYn7pL/sdeOJWIv8ywGc0N/eq5uYsXwa7ndmaEHkY2ngI8EGMh9BO2Jamasm4EDaTs9URTLoAAFKEABClDABwJVAqphkgjmnWI6wqoymBeI58rX7reLLdOcSBfPm/MwnsCD1wWgfWNud2a8kWOLKeB7AQZy35tXuMbvDv6A/xz8pMLX80IKUIACFKAABbQRCLGF4eE2U9AltgtsKucx2x3AhoMOLN7qQLJYoZ2HMQRsYpez2cODEcIb5MYYMLaSAhoLMJBrPADlqf545gk88sfD5bmE51KAAhSgAAUooCOBQEswxraejB51uiHAqm4FbofYIm3zIQd+E8E8UexpzkPfAq3rWjG2D9O4vkeJraOAfgQYyPUzFqpaMnr5g0jNTVB1Lk+iAAUoQAEKUECfAlbY8FDcRNxQ91oE2NSFN6cI5luPXAjmZ9IZzPU5ssA93QLQrSWnq+t1fNguCuhNgIFcbyNSRns+2v0xFh7/sYyz+DYFKEABClCAAkYQsMCK+1uOwc31eyPIFqSqyS6RxXcedeBXsfjbyRQGc1VoPjxp1pAgRISJees8KEABCqgQYCBXgaSnU/ak7sXf1j+mpyaxLRSgAAUoQAEKeEBgaNNR6NeoL4IDglWXtueEuGMe78DhJAZz1WhePLFBlAWP9lf3ixUvNoNFU4ACBhJgIDfQYMmmulxOPLhsJDLyUwzWcjaXAhSgAAUoQAE1AoOuuBcDmvRHaEComtOVc/afcopnzO04cI7BXDWaF068vZMNvdurWxvAC9WzSApQwIACDOQGHDROWzfgoLHJFKAABShAgXIK9Gt4F+5qehfCA8NUX3n4rAjm8XbsOcNgrhrNgyfOGBCI2jXU7TvvwWpZFAUoYGABBnIDDh6nrRtw0NhkClCAAhSgQAUFbqzbD/e2GIZqQVVVl3A8Ud4xd2DHCbESHA+fCMRWs+Dpuzhd3SfYrIQCfiTAQG7AweS0dQMOGptMAQpQgAIUqKRAj1o34f5WI1A9qDosFnWLhp1KdmKRCObxxxjMK8lf5uX9Otpw85Wcrl4mFE+gAAWKCDCQF+Ewzg+ctm6csWJLKUABClCAAp4U6Fyzh9gy7SFEhdRQHczPpbqweJsdGw4zmHtyLC4u62+DglAzQt0vSi6+jt9TgALmFmAgN+j4c9q6QQeOzaYABShAAQp4SKBd1FUY23osYkJjVAfzRLF/+e/b7Vh7wAk+Ze6hgRDF1KthweMDOF3dc6IsiQLmEWAgN+hYc9q6QQeOzaYABShAAQp4WKBFZHs83Pph1AmrrTqYp2aKYL7Djj/2OeFgMq/0iAy82obr2nC6eqUhWQAFTCjAQG7gQf9w10f47cR8A/eATacABShAAQpQwFMCV1RthYltJ6JB1fqqg3l6tgtLdziwep8DBQ5PtcR85Tw/OAiR4Zyubr6RZ48pUHkBBvLKG2pWAqeta0bPiilAAQpQgAK6FagbdgUmt5uKxtWuUB3Ms3JcWL7LgRW7Hciz67ZrumxY0xgLJvfjdHVdDg4bRQEDCDCQG2CQSmqiy+XC2BWjkZJ7rqRT+DoFKEABClCAAiYViAmthyntpqF59Waqg3l2rgurRChfJsJ5ToFJ4crZ7SHXBKB7K1s5r+LpFKAABS4IMJAb/JPwn33f4LsjXxi8F2w+BShAAQpQgALeEogMjhHB/BG0rtFKBHOrqmpy811YvcchnjN3IDtf1SWmPemloUGoGsrp6qb9ALDjFKikAAN5JQG1vvxs9jlMXPWQ1s1g/RSgAAUoQAEK6FygWmANTBJ3zK+Mbqc6mOeJu+Rr99nFlmkOZObpvIMaNK9VbQvG38rp6hrQs0oK+I0AA7kfDOWMdTNwIG2nH/SEXaAABShAAQpQwNsCVQKqicXfpqJzTCdYVd4xLxDPla/bL4O5E2nieXMeFwRG9AxA52acrs7PAwUoUHEBBvKK2+nmyiXHl+K93W/opj1sCAUoQAEKUIAC+hcItoVifNxUXFO7C2xWdaHS7gQ2HnBgkbhjnpxl7mAeHAi8dE8wgsRXHhSgAAUqKsBAXlE5HV13vuA8Ri0dDruLq6/oaFjYFApQgAIUoIAhBAItwRgdNxG96vZAgFXdXtpOEcy3HHJg4VYHEsSe5mY8erSwYnB3pnEzjj37TAFPCjCQe1JTw7Lmxb+BNeeWatgCVk0BClCAAhSggJEFrLBhVKvxuLHeDQi0qQuaMphvO+rAbyKYn04zVzCf3i8QDWPULZJn5M8F204BCnhXgIHcu74+K31r4ja8uPkZn9XHiihAAQpQgAIU8F+BEc3H4paGNyPIpm7BMrETK3Ydd+BXEcxPJPt/MK8dYcGMQeps/PdTwp5RgAKeEGAg94SiDspwupx4aNkoZOQn66A1bAIFKEABClCAAv4gMKTJA7j9itsQEhCiujt7Tly4Y3440X+D+aCrbbi2jbrp/arheCIFKGBKAQZyPxr2z/d8gZ+OfeNHPWJXKEABClCAAhTQg8CARkMxsMkAVAmsoro5B087xTPmduw/61/BXO44LvceD+fe46o/CzyRAhQoWYCBvGQbw71zOvsMJq8aY7h2s8EUoAAFKEABChhD4NYGd2JIs8EIDwxX3eCj50Qwj3dgtwjo/nBc2dCKUTeqe8beH/rLPlCAAt4VYCD3rq/PS5+5YSZ2p8T7vF5WSAEKUIACFKCAeQSur9sXw1sMQ0RQhOpOn0h0KtulbTtu7GA+vncAWtVXt02cahyeSAEKmFaAgdzPhn7d2fWYu/VFP+sVu0MBClCAAhSggB4FusXegAda3Y/I4EhYLHIyd9nHmRQRzMXib5uPGi+YVwux4IV7gmDl4uplDzTPoAAFVAkwkKtiMs5JDqcDo5fLxd1SjNNotpQCFKAABShAAUMLdIruhodaj0Z0SJTqYJ4gtklbtM2OjYecMMpT5re0t6FvJy7mZugPKxtPAZ0JMJDrbEA80Zz/7P8G3x3+whNFsQwKUIACFKAABSigWqBNjc4Y23osalWJVR3MkzNcWLLdjrUHnHDqOJnL+//PDQ5CZLi6mQCq0XgiBShgagEGcj8c/uTcFIxbPlL8ttl4U8H8cDjYJQpQgAIUoIDpBJpFtMHEthNRJ6yO6mCemuXCsh12rNrnhEOHf4ThYm6m+xizwxTwiQADuU+YfV/J7M2vYnPiat9XzBopQAEKUIACFKDAnwINqzbHpLaT0bBqA9XBPOO8COY7HVi5x4ECh34op9waiCa1+fC4fkaELaGAfwgwkPvHOF7Wi21J2zFr09OXvc4XKEABClCAAhSggK8F6oRdgcltp6BJRGPVwTwrx4UVuxxYLoJ5XoGvW1y0vtoRFswYFFT0Rf5EAQpQwAMCDOQeQNRjES6XC+NXjkNSzmk9No9togAFKEABClDAhAI1Q+tgSrtpaFG9hepgfj7PhVW7HVgq7prnaBTM7+kWgG4tudWZCT+y7DIFvC7AQO51Yu0qmH/4f/j3/g+0awBrpgAFKEABClCAAsUIVA+uiSltH0GbqDgRzNVNA88VYfyP3XYs2eFAdn4xhXrppZBAYNY9wQgWX3lQgAIU8LQAA7mnRXVUXmZBFsYuewD5zjwdtYpNoQAFKEABClCAAhcEwgOri2fMH0HHmu1VB/N8EczX7rdj8TYnMnK9vyz7ja1t6N+FW53xM0sBCnhHgIHcO666KfWDXR9h0Yn5umkPG0IBClCAAhSgAAUuFQi1hWNC22m4OrYzrCrvmNvFgm/r9zvEXuYOpIqF4Lx1zLwrCNHVuNWZt3xZLgXMLsBA7uefgLPZ5zBp1WixBZr3/kfl54TsHgUoQAEKUIACPhIIsgRjfOup6FbnGtis6p7Ztost0jYfdOC3rQ4kia3TPHm0qWfFmJs5V92TpiyLAhQoKsBAXtTDL396RWyBtolboPnl2LJTFKAABShAAX8UCLAEYnTcRFxbtxcCrOqmiztFMI8/7MBCEczPZXgmmE/oHYgW9dU94+6P48A+UYAC3hdgIPe+seY17Evdh6fXP6p5O9gAClCAAhSgAAUoUB4BC6wY1XI8bqp/IwJt6u5Ui41msP2ICOZiKvup1IoHc7nV2ZMDg8Sz7eVpMc+lAAUoUD4BBvLyeRn27MfXPI7DGXsM2342nAIUoAAFKEABcwsMbz4atzbog+CAYFUQMpjvOeHAr/EOHEsufzAf0TMAnZupmzavqkE8iQIUoEAxAgzkxaD440vrzq7H3K0v+mPX2CcKUIACFKAABUwkMLjxCNze+HaEBoSo7vW+k07xjLkdBxPUBfPIKhbMHBwknmNXXQVPpAAFKFAhAQbyCrEZ7yKny4mHV4xDUu4Z4zWeLaYABShAAQpQgAKXCNzRcAgGNb0TYYFhl7xT8o+HzjjFM+Z27DtTejC/q6sNveLUPbtecm18hwIUoEDZAgzkZRv5zRm/HF2IT/b+3W/6w45QgAIUoAAFKECBPvX7455mQ1A1qKpqjGMJIpiLqey7TomV4C45qgQBzw8JRrC6R9YvuZo/UoACFCifAAN5+bwMfXauPRejl49Ejj3L0P1g4ylAAQpQgAIUoMClAtfW6YP7WtyH6sERl75V4s+nkuRUdge2Hv8rmN/WwYY+HXh3vEQ0vkEBCnhUgIHco5z6L+yrfV/j+yNf6r+hbCEFKEABClCAAhSogECXmGsxKm4UagRHihXS1S2RfjbViUUimG8/4cTz4tnxsBB111WgebyEAhSgQBEBBvIiHP7/Q2ZBFsYuG4l8Z67/d5Y9pAAFKEABClDAtAJXRnfFmNZjUDMkWnUwz851MYyb9hPDjlNAGwEGcm3cNa3133u/wPyj32jaBlZOAQpQgAIUoAAFfCEQV6MDxrcej1pVaqkO5r5oF+ugAAUoIAUYyE34OcjIz8C45aPEXfI8E/aeXaYABShAAQpQwIwCTSNaY0KbCagXXo/B3IwfAPaZAjoVYCDX6cB4u1mf7vkcPx/71tvVsHwKUIACFKAABSigK4EG4U0xqe1kNKrWiMFcVyPDxlDAnAIM5OYcd6TnpSt3yQtc+SYVYLcpQAEKUIACFDCzQO0qDTG53VQ0jWjCYG7mDwL7TgGNBRjINR4ALav/ePe/8Ovx77VsAuumAAUoQAEKUIACmgrEhNbF2z3fQYCVG49rOhCsnAImFWAgN+nAy26n5qVivHiW3O6ym1iBXacABShAAQpQwMwCvWrfjMntJ5mZgH2nAAU0FGAg1xBfD1V/tPtjLDz+ox6awjZQgAIUoAAFKEABnwpYYRN3x99HrbBYn9bLyihAAQq4BRjI3RIm/Zqcm4KHxV1yh/iLBwUoQAEKUIACFDCTwHV1bsHEdhPM1GX2lQIU0JkAA7nOBkSL5nyw6yMsOjFfi6pZJwUoQAEKUIACFNBEQN4df7fXB4ipEqNJ/ayUAhSggBRgIOfnQFlxffyKh8S+5LnUoAAFKEABClCAAqYQuKHubXi47ThT9JWdpAAF9CvAQK7fsfFpy/6z7xt8d+QLn9bJyihAAQpQgAIUoIAWAjZxd/zv136M6NAoLapnnRSgAAUKBRjICynM/U2OPQfjxF3y7IIMc0Ow9xSgAAUoQAEK+L1A7/p3YGzr0X7fT3aQAhTQvwADuf7HyGct/PnoAny69z2f1ceKKEABClCAAhSggK8Fgqwh+Me1H6F6cISvq2Z9FKAABS4TYCC/jMS8LxQ4CjBh1Xik5J4zLwJ7TgEKUIACFKCAXwsMbnI/Bje7y6/7yM5RgALGEWAgN85Y+aSlK06uxDs75/ikLlZCAQpQgAIUoAAFfClQLagG/tHrfYQEhPiyWtZFAQpQoEQBBvISacz5hsvlxNTVU3Eq+4g5AdhrClCAAhSgAAX8VmB862m4sf4Nfts/dowCFDCeAAO58cbM6y3ekhiPlzfP9Ho9rIACFKAABShAAQr4SqBOWCO82eMtWC1WX1XJeihAAQqUKcBAXiaROU94at1T2J+2w5ydZ68pQAEKUIACFPA7gac6zULHmlf6Xb/YIQpQwNgCDOTGHj+vtf5g2iE8uW6q18pnwRSgAAUoQAEKUMBXAnE1OuCFq1/wVXWshwIUoIBqAQZy1VTmO/Gd7e9ixenfzNdx9pgCFKAABShAAb8SmHPN27gi4gq/6hM7QwEK+IcAA7l/jKNXepGWl44JK0Yjz5njlfJZKAUoQAEKUIACFPC2QI/aN2Fq+yneroblU4ACFKiQAAN5hdjMc9GPh+bjiwMfmafD7CkFKEABClCAAn4jEGQNxjtim7OokCi/6RM7QgEK+JcAA7l/jafHe2N32jFp1QQk5pz2eNkskAIUoAAFKEABCnhTYGjTkRjUdKA3q2DZFKAABSolwEBeKT5zXLwpYTNe2fKcOTrLXlKAAhSgAAUo4BcCNUPr4O0e7yLQFugX/WEnKEAB/xRgIPfPcfV4r57f+AJ2JG/0eLkskAIUoAAFKEABCnhDgNuceUOVZVKAAp4WYCD3tKiflncq6zSmrX4YTjj8tIfsFgUoQAEKUIAC/iLQMbobnuo8w1+6w35QgAJ+LMBA7seD6+mufbL7U/xy/DtPF8vyKEABClCAAhSggMcEAiyBeLvne4ipEuOxMlkQBShAAW8JMJB7S9YPy80uyMaEleOQVZDmh71jlyhAAQpQgAIU8AeBuxvfhyHNB/tDV9gHClDABAIM5CYYZE92cdWp1Xhrx6ueLJJlUYACFKAABShAAY8IRIfUEnfH/4EgLuTmEU8WQgEKeF+Agdz7xn5Xw3MbnsfOlE1+1y92iAIUoAAFKEABYws82fE5dI7pZOxOsPUUoICpBBjITTXcnunsufPnMHXVwyhw5XumQJZCAQpQgAIUoAAFKinQPupq/O2qv1WyFF5OAQpQwLcCDOS+9fab2r47+AP+c/ATv+kPO0IBClCAAhSggHEFgqwheLPH37mQm3GHkC2ngGkFGMhNO/SV67jdacf0Px7BqewjlSuIV1OAAhSgAAUoQIFKCjzQchz6NbqtkqXwcgpQgAK+F2Ag972539S4L3U/nl4/3W/6w45QgAIUoAAFKGA8gcbVWuLVa16FxWI1XuPZYgpQwPQCDOSm/whUDuC9ne9jycmfK1cIr6YABShAAQpQgAIVELDChrnd30GDqvUrcDUvoQAFKKC9AAO59mNg6BbIvcknrhqPzPxUQ/eDjacABShAAQpQwHgCgxoPx9DmQ4zXcLaYAhSgwJ8CDOT8KFRa4I8za/HGtpcrXQ4LoAAFKEABClCAAmoFaldpiHnd30Ag9xxXS8bzKEABHQowkOtwUIzYpNmbX8XmxNVGbDrbTAEKUIACFKCAAQVe6jIXLSJbGLDlbDIFKECBvwQYyP+y4HeVEEjPS8fk1Q8juyCjEqXwUgpQgAIUoAAFKFC2QJ/6/TG69UNln8gzKEABCuhcgIFc5wNkpOatPbsOr299yUhNZlspQAEKUIACFDCYQGRwDN7u+XeEBoQYrOVsLgUoQIHLBRjILzfhK5UQeD1+HtaeW1aJEngpBShAAQpQgAIUKFngb51eRPua7Us+ge9QgAIUMJAAA7mBBssITc0syMLkVQ9z1XUjDBbbSAEKUIACFDCYwM1iqvoYTlU32KixuRSgQGkCDOSl6fC9CglsPLcJr8Y/X6FreREFKEABClCAAhQoTiAmtB7e6P4mggOCi3ubr1GAAhQwpAADuSGHTf+Nfmvb21h1ZrH+G8oWUoACFKAABSigewErbHi56+toWr2J7tvKBlKAAhQojwADeXm0eK5qgeyCbLHq+kSk5yWpvoYnUoACFKAABShAgeIE7m58H4Y0H1zcW3yNAhSggKEFGMgNPXz6bvzWxG14cfMz+m4kW0cBClCAAhSggK4FGlVtgVeveRU2q03X7WTjKEABClREgIG8Imq8RrXA+7s+xOITP6k+nydSgAIUoAAFKEABt0CgJQiv93gXdcJqu1/iVwpQgAJ+JcBA7lfDqb/O5DsK8Nia6TiVfUR/jWOLKEABClCAAhTQtcCDLSfi1kZ9dN1GNo4CFKBAZQQYyCujx2tVCZzIPInH10xBgStf1fk8iQIUoAAFKEABCrSp0RnPXjUTFouFGBSgAAX8VoCB3G+HVl8dW3R8MT7Y/ba+GsXWUIACFKAABSigS4GwwGp4U0xVjwyO1GX72CgKUIACnhJgIPeUJMspU+CVza9iU+LqMs/jCRSgAAUoQAEKmFvg6U6z0KHmleZGYO8pQAFTCDCQm2KY9dHJLLEV2rTVk5Gal6CPBrEVFKAABShAAQroTqB/oyG4r+Vw3bWLDaIABSjgDQEGcm+osswSBfak7sXM9U/ABWeJ5/ANClCAAhSgAAXMKdAkojVe7vIStzgz5/Cz1xQwpQADuSmHXdtOf7P///Dt4X9r2wjWTgEKUIACFKCArgSqBIRjXvd3ER0apat2sTEUoAAFvCnAQO5NXZZdrIDT5cQz65/G/rSdxb7PFylAAQpQgAIUMJ/Akx2fQ+eYTubrOHtMAQqYWoCB3NTDr13nk3NTMP2PycgqSNeuEayZAhSgAAUoQAFdCNzWYBBGxj2gi7awERSgAAV8KcBA7ktt1lVEYEfyLryw8Sk+T15EhT9QgAIUoAAFzCVwRbWWmN11NgKsAebqOHtLAQpQQAgwkPNjoKnAD4fm48sDH2naBlZOAQpQgAIUoIA2AiG2MPHc+NuIqRKjTQNYKwUoQAGNBRjINR4AVg9wf3J+CihAAQpQgALmFOBz4+Ycd/aaAhT4S4CB/C8LfqeRQI49RzxP/ggSck5q1AJWSwEKUIACFKCArwXubnwfhjQf7OtqWR8FKEABXQkwkOtqOMzbmBOZJ/HE2mnId+aaF4E9pwAFKEABCphEoGN0N8zo9CQsFotJesxuUoACFChegIG8eBe+qoHA6lNr8OaO2RrUzCopQAEKUIACFPCVQGxofczt/jpCA0J9VSXroQAFKKBbAQZy3Q6NORv28e5P8OvxH8zZefaaAhSgAAUo4OcCwdZQvNbtDdQNr+vnPWX3KEABCqgTYCBX58SzfCRgd9oxc8PfsD9tp49qZDUUoAAFKEABCvhK4PEOz+Lq2M6+qo71UIACFNC9AAO57ofIfA1Mz0/HY2umIyX3nPk6zx5TgAIUoAAF/FRgUOPhGNp8iJ/2jt2iAAUoUDEBBvKKufEqLwscyziOGeumc5E3LzuzeApQgAIUoIAvBDpEX4OnOs3gIm6+wGYdFKCAoQQYyA01XOZq7KaEzXh1y/Nwib94UIACFKAABShgTIGY0HqY2+11VAmsYswOsNUUoAAFvCjAQO5FXBZdeYH5h3/Cv/d/WPmCWAIFKEABClCAAj4XqBJQFf/f3p1HV1nfeRz/5ObmZg9JSAJJCEvYN9ldwRYVj1Xb0Y5W7Yy12qltT21rW5fqqEUqanUcu9BO7ajVqTNOZ5TaVjsgWBCtyA6y7wQSIAGykP3m3tz53dhzRAmQS+7yLO/k5NzLs/x+3+/rxz+f89z7PE9c8LT6Z/aL+9xMiAACCNhBgEBuh1VyeY0//2Ce3j640OUKtI8AAggggIC9BJKVrNnnPa7ReaPsVTjVIoAAAnEUIJDHEZupzk7gwzuvP2TuvL7x7AbgLAQQQAABBBCIu8B3xt+rGaXT4z4vEyKAAAJ2EiCQ22m1XFzrcX+j7nnvezradtjFCrSOAAIIIICAPQS+MPRL+sLw6+1RLFUigAACCRQgkCcQn6kjEzjQWKkfmDuvtwdbIjuRoxFAAAEEEEAgbgLTiy/TnRO+E7f5mAgBBBCwswCB3M6r58LaNxzZoLlrfqhOBV3YPS0jgAACCCBgbYERueM159w58nq81i6U6hBAAAGLCBDILbIQlNFzgaWVyzRv05M9P4EjEUAAAQQQQCDmAoXpJXrCPN4sOyUr5nMxAQIIIOAUAQK5U1bSZX3M3/2a/mvncy7rmnYRQAABBBCwpkCGN0s/No83K87sb80CqQoBBBCwqACB3KILQ1lnFnh2y3NasP+1Mx/IEQgggAACCCAQM4GUJJ9mn/uoRuaNjNkcDIwAAgg4VYBA7tSVdUFfoVCnnlz3lFbWLHNBt7SIAAIIIICA9QQ85lnjP5jyQ00unGS94qgIAQQQsIEAgdwGi0SJpxboCHZo9qrZ2l7/wakPYg8CCCCAAAIIxETgW+Pu0acGzIjJ2AyKAAIIuEGAQO6GVXZ4j80dzbr//ftU1bzX4Z3SHgIIIIAAAtYR+PKor+vqwVdZpyAqQQABBGwoQCC34aJR8skCtW21unf53aprrzl5J1sQQAABBBBAIKoC1w65Sf8w8otRHZPBEEAAATcKEMjduOoO7bmyqcpcKb9bLYFGh3ZIWwgggAACCCReYGbpVfrm+K8nvhAqQAABBBwgQCB3wCLSwkcCexv26sGV96kt2PzRRt4hgAACCCCAQFQEphZO1z2T75YnyROV8RgEAQQQcLsAgdzt/wMc2P+O+p2avfJ++TvbHNgdLSGAAAIIIJAYgdF5k/TQ1AeVkpySmAKYFQEEEHCgAIHcgYtKS9Km2s2au+ohdYT8cCCAAAIIIIBALwXKc0bp4XN/pHRvWi9H4nQEEEAAgRMFCOQnavDeUQLrjqzX42tmK2h++UEAAQQQQACBsxMYlD1Cc86do8yUzLMbgLMQQAABBE4pQCA/JQ07nCCwsnqV/mXdXHUSyp2wnPSAAAIIIBBngbKsofrReXOVRRiPszzTIYCAWwQI5G5ZaRf3+W7VX/XTjT9WyPzygwACCCCAAAI9EyjNHKJHzn9U2SlZPTuBoxBAAAEEIhYgkEdMxgl2FHjrwF/0b5uftmPp1IwAAggggEDcBUoyB+sRc2U8x5cT97mZEAEEEHCTAIHcTavt8l4XVCzUs1vnuVyB9hFAAAEEEDi9QP+MgZp73qPqk9rn9AeyFwEEEECg1wIE8l4TMoCdBBbtf0vPbPmJnUqmVgQQQAABBOImUJReqrnnP6681Ny4zclECCCAgJsFCORuXn2X9r7kwNv65ean+E65S9efthFAAAEEuhcoSC/Ro+c9pvy0/O4PYCsCCCCAQNQFCORRJ2VAOwi8U/WufrbxSRPKO+1QLjUigAACCCAQU4Gi9AFdd1PvSxiPqTODI4AAAp8UIJB/UoR/u0Zg+eH39fT6x3kkmmtWnEYRQAABBLoTGJBVroenzeE7493hsA0BBBCIsQCBPMbADG9tgZXVq/XUukfMU8qD1i6U6hBAAAEEEIiBwJCcUfrhtNk8ZzwGtgyJAAII9ESAQN4TJY5xtMDaI+v1xNqHFQgFHN0nzSGAAAIIIHCiwMjcc/TA1AeV7k07cTPvEUAAAQTiKEAgjyM2U1lX4IOjG/XYmtnqCPmtWySVIYAAAgggECWB8X2n6b7JP5Av2RelERkGAQQQQOBsBAjkZ6PGOY4U2Fq3TXNXz1ZbsNmR/dEUAggggAACYYGphdN116Tvy+vxAoIAAgggkGABAnmCF4DprSVQcXy/Hl79oI77a61VGNUggAACCCAQBYGL+l+mb59zh5I9yVEYjSEQQAABBHorQCDvrSDnO06gpqVGs1c9pJrWKsf1RkMIIIAAAu4VuGzA1fra2K8qKcnjXgQ6RwABBCwmQCC32IJQjjUEGvwNmrNqjioad1ijIKpAAAEEEECgFwLXl9+sG0Z8oRcjcCoCCCCAQCwECOSxUGVMRwi0Btr02NrHtKV2rSP6oQkEEEAAAfcJeJRsrop/W5eWXeK+5ukYAQQQsIEAgdwGi0SJiRMIdAb0kw0/1fvVSxNXBDMjgAACCCBwFgI+T5q5eds/a3LhxLM4m1MQQAABBOIhQCCPhzJz2FogFOrUs1ue18IDf7B1HxSPAAIIIOAegayUXD0wZbaG5Q51T9N0igACCNhQgEBuw0Wj5MQIvLLrVf33rhcSMzmzIoAAAggg0EOBwvQSzZ42R/0y+vXwDA5DAAEEEEiUAIE8UfLMa0uBd6ve07xNTyoQCtiyfopGAAEEEHC2QHnOKD0w9UHl+HKc3SjdIYAAAg4RIJA7ZCFpI34C2+t2mJu9zVFTR0P8JmUmBBBAAAEEziAwseB83T3xLqV6U89wJLsRQAABBKwiQCC3ykpQh60Ews8q/9HqOTrUUmGruikWAQQQQMCZAlcMvEa3jb5VHp4x7swFpisEEHCsAIHcsUtLY7EWaOlo0RPrntSm2tWxnorxEUAAAQQQ6FYg/Fizr465Q7MGXtbtfjYigAACCFhbgEBu7fWhOosLBDuD5g7sz2lR5Z8sXinlIYAAAgg4TSDDm617Jz+gsfljnNYa/SCAAAKuESCQu2apaTSWAq/ve0MvbntGIfPLDwIIIIAAArEWKM4Y1HXzNu6kHmtpxkcAAQRiK0Agj60vo7tIYHXNGv3r+sfl72xzUde0igACCCAQb4EJfc/TXZO+r3RverynZj4EEEAAgSgLEMijDMpw7haobKrSo2seUU1rpbsh6B4BBBBAICYCVw+6XreM+kclcfO2mPgyKAIIIBBvAQJ5vMWZz/ECrYFWPb3+J1p79D3H90qDCCCAAALxEUg2N2/72tg7dUnZp+MzIbMggAACCMRFgEAeF2YmcZtAKBTSK7vm6392v8j3yt22+PSLAAIIRFmgT2qB7p10v0bkDo/yyAyHAAIIIJBoAQJ5oleA+R0tsPbI+q7vlbcFmx3dJ80hgAACCMRGYEz+JN018S7l+HJiMwGjIoAAAggkVIBAnlB+JneDwOHmaj22dq6qmve6oV16RAABBBCIksC1Q27STSNulIfvi0dJlGEQQAAB6wkQyK23JlTkQIG2QJt+sfGXWl69xIHd0RICCCCAQDQF0pIzdeeEuzW1aEo0h2UsBBBAAAELChDILbgolORcgT/ueV0v7XhWnQo6t0k6QwABBBA4a4GyrKG6b/L9KsooOusxOBEBBBBAwD4CBHL7rBWVOkRgZ/0uPWmeV17bVu2QjmgDAQQQQCAaAp8uuUK3j71dvuSUaAzHGAgggAACNhAgkNtgkSjReQLNHc2at/EXWlXzjvOaoyMEEEAAgYgEvEkp+uqYO3Rp2SURncfBCCCAAAL2FyCQ238N6cDGAgsqFuqFbb9SIBSwcReUjgACCCBwtgIlmYPNXdTv0cDssrMdgvMQQAABBGwsQCC38eJRujMEKo5X6Il1P1Z16wFnNEQXCCCAAAI9EphV9jndOuoW8xF1X4+O5yAEEEAAAecJEMidt6Z0ZEOB8F3Yf73537Xs0Js2rJ6SEUAAAQQiEcjwZutb47+naf2mRnIaxyKAAAIIOFCAQO7ARaUl+wq8XblMz2z5ufydbfZtgsoRQAABBE4pMCZ/kr474bvKS8075THsQAABBBBwjwCB3D1rTac2ETjUfEhPb3hae45vtUnFlIkAAgggcCYBj5J10/BbdU35Z5WU5DnT4exHAAEEEHCJAIHcJQtNm/YS6Ax16tVdv9f/7v4tzyy319JRLQIIIHCSQGF6ib4/4R4Nyx160j42IIAAAgi4W4BA7u71p3uLC+w9vs9cLX9KB5v3WbxSykMAAQQQ6E5gZumV+sroW5XmTetuN9sQQAABBFwuQCB3+X8A2re+QEewQ/+542W9UfGKQuaXHwQQQAAB6wvkphbqjnHf0cTCCdYvlgoRQAABBBImQCBPGD0TIxCZwNa6bfqpuVp+tO1wZCdyNAIIIIBAXAU+XXKFbjNXxTNSMuI6L5MhgAACCNhPgEBuvzWjYhcLtJrHoz2/9TdaUvVnFyvQOgIIIGBNgRxfX90x/k5NLpxozQKpCgEEEEDAcgIEcsstCQUhcGaBtUfW6Zebfq769iNnPpgjEEAAAQRiLnBx8eX6ypjblJmSGfO5mAABBBBAwDkCBHLnrCWduEwgfLX8pe0vaeGBP7isc9pFAAEErCOQ48vXN813xacUTbZOUVSCAAIIIGAbAQK5bZaKQhHoXmB73Q7N2/gzHWqp6P4AtiKAAAIIxETg4pLLzXfFb1MWV8Vj4sugCCCAgBsECORuWGV6dLxAoDOg+btf06u7X1LQ/PKDAAIIIBA7gX7pZfrG+G9qXP7Y2E3CyAgggAACrhAgkLtimWnSLQJVTVX6xaZ52lG/yS0t0ycCCCAQNwFvklefL/+iri2/RinJKXGbl4kQQAABBJwrQCB37trSmUsFQqGQFh1YrBe3P6v2YItLFWgbAQQQiK7AmPzJ+sbYb6g4s390B2Y0BBBAAAFXCxDIXb38NO9kgbr2Oj235Xm9X73UyW3SGwIIIBBTgayUXN028nZdPGBGTOdhcAQQQAABdwoQyN257nTtIoFNtZv1682/0sHmfS7qmlYRQACB3gtcUnqVvjTqZm7a1ntKRkAAAQQQOIUAgfwUMGxGwEkCwc6gFuxfqJd3/ofags1Oao1eEEAAgagLDMoertvHfF0j80ZEfWwGRAABBBBA4EQBAvmJGrxHwOECDf4G/XbbS1p6cIHDO6U9BBBAIHKBbF+ebh5+q2YO+JSSkjyRD8AZCCCAAAIIRChAII8QjMMRcILAzvpd+vWWZ7T3+DYntEMPCCCAQK8EkpWsqwdfp+uGXad0b1qvxuJkBBBAAAEEIhEgkEeixbEIOEggfDf2v1Qu0W93PK+mjgYHdUYrCCCAQM8FphRO122jv6x+Gf16fhJHIoAAAgggECUBAnmUIBkGAbsKtHS0aP7u3+uNivnqCPnt2gZ1I4AAAhEJlGYO0T+N+ZrG9x0b0XkcjAACCCCAQDQFCOTR1GQsBGwscKytVi/veFlvH1yokPnlBwEEEHCiQGZKjr447BbNGniZPHxP3IlLTE8IIICArQQI5LZaLopFIPYC+xsP6MVtL2jDsZWxn4wZEEAAgTgJ+Dxp+qz5nvg15Z8z3xNPj9OsTIMAAggggMDpBQjkp/dhLwKuFdh4bLNe2Pa8Khp3uNaAxhFAwP4C4Ru2zRr4OV0/7O/Vx9fH/g3RAQIIIICAowQI5I5aTppBILoC4Ru//fXgcr208zc62nY4uoMzGgIIIBBDgSQlaUbxLN044kYVpRfGcCaGRgABBBBA4OwFCORnb8eZCLhGINAZ0Jv7F+uVPS/ruL/WNX3TKAII2FNgcsGFunnkzSrLHmDPBqgaAQQQQMA1AgRy1yw1jSLQewF/sEOLDizSq3t+RzDvPScjIIBAlAVG5U3Ql0beohG5w6M8MsMhgAACCCAQGwECeWxcGRUBRwv4g369+bdg3uivc3SvNIcAAtYXCAfxG4bdaB5hNs76xVIhAggggAACJwgQyE/A4C0CCEQmEA7mC00wn2+umBPMI7PjaAQQ6L3AuPypumH4DRqdN6r3gzECAggggAACCRAgkCcAnSkRcJpAe6BdC/ebYL73d2rqqHdae/SDAAIWE5hYcL65In6DhucOs1hllIMAAggggEBkAgTyyLw4GgEETiMQDuaLKhfrD/vmq66t5jRHsgsBBBCIXGBq4fSuK+JDcgZHfjJnIIAAAgggYEEBArkFF4WSELC7QLAzaB6X9p7m73tFlU177N4O9SOAQAIFwo8vu6DfTF037DoNzC5LYCVMjQACCCCAQPQFCOTRN2VEBBA4QWDDkQ16de+r2lK77oStvEUAAQROL+DzpOnSAZ/RZwdfraKMotMfzF4EEEAAAQRsKkAgt+nCUTYCdhPY07DX3PxtvlZUL1NInXYrn3oRQCBOArmphbp64N9p1sDLlJmSGadZmQYBBBBAAIHECBDIE+POrAi4VqCmpUav7f2jllYtkL+z3bUONI4AAh8XGJQ9QtcO/rwuKD5fyZ7kj+/kXwgggAACCDhUgEDu0IWlLQSsLtDU0awlVUv1RsUfdbT1oNXLpT4EEIiBQPj74ZMKLtA15ddoTP7oGMzAkAgggAACCFhbgEBu7fWhOgQcLxAKhbT+6Aa9vu91fXBspfk4e8jxPdMgAm4XSEvO1MzSy3XloCtVnNnf7Rz0jwACCCDgYgECuYsXn9YRsJpA+OPsf65YoLeq/k+tgSarlUc9CCDQS4HynFG6ouwqTS+5UL5kXy9H43QEEEAAAQTsL0Agt/8a0gECjhPwB/165+C75uPsf9L+pl2O64+GEHCTQPhu6TNKLtUVA68Qzw9308rTKwIIIIBATwQI5D1R4hgEEEiYwM76XVpcuVjvHlqi9mBLwupgYgQQiExgQNZQfabsSl1cerHSvWmRnczRCCCAAAIIuESAQO6ShaZNBOwuEL5q/v6hFVp8cBHPNLf7YlK/YwVSPem6oP+ndPnAyzUid7hj+6QxBBBAAAEEoiVAII+WJOMggEDcBGpaj2jJgSV66+Cbqm2rjtu8TIQAAicLJMmjcX2n6FLzsfRp/aYq1Zt68kFsQQABBBBAAIFuBQjk3bKwEQEE7CAQvkP7ptrNWnzgLa2sXqaOkN8OZVMjAo4QKM0coktKZ5mPpM9QXmquI3qiCQQQQAABBOItQCCPtzjzIYBATARaA61acXiV3jn0tjYeW6NOBWMyD4Mi4GaBbF+eLu5/iWYOmKnBOYPcTEHvCCCAAAIIREWAQB4VRgZBAAErCTR2NGnFoZVadnipttZuME8277RSedSCgK0E0r1ZmlZ0oWYUz9CEgnPkSfLYqn6KRQABBBBAwMoCBHIrrw61IYBArwUa2hv03qH39Y4J5zvqN/V6PAZAwA0CGd5snVc0XRcVX2S+Hz5WXo/XDW3TIwIIIIAAAnEXIJDHnZwJEUAgUQLH2mr13uHl5hFq72hPwxZz5TyUqFKYFwHLCWSl9NF5/UwI73+RxuaPUbIn2XI1UhACCCCAAAJOEyCQO21F6QcBBHok0OBv0JrqtVpRs8J853y1/J3tPTqPgxBwkkCOr6/ONyH8wuILNCZvNB9Hd9Li0gsCCCCAgC0ECOS2WCaKRACBWAr4gx3mbu2btKJ6hVbVLNdxf20sp2NsBBImkKQklfcZo2mF0zSlaIqG5AxOWC1MjAACCCCAAAISgZz/BQgggMAJAuFHqe1u2KNV1au14shyVTbtPmEvbxGwn0CGuSnbxIJzNbVgqib1m6TslCz7NUHFCCCAAAIIOFSAQO7QhaUtBBCIjkC9uSncxqMbte7YOm04tlYN7UejMzCjIBBDgQFZQ81VcBPCzVXw4bnD+Sh6DK0ZGgEEEEAAgd4IEMh7o8e5CCDgOoGqpiptMAF9/dF12ly7Tu2dra4zoGHrCfRLL9M5fSdqfN/xXXdFz/HlWK9IKkIAAQQQQACBkwQI5CeRsAEBBBDomUCwM6hdDbtMQP/AXD1fbz7qvlWBUEfPTuYoBHohUJBWbML3JJ2TbwJ4wTjlpeb2YjRORQABBBBAAIFECRDIEyXPvAgg4DiBQGdAe4/v05bardpSt0XbzXPPmzrqHdcnDcVfoCh9gEbnjdX4/HO6roAXpPeNfxHMiAACCCCAAAJRFyCQR52UARFAAIGPBA41H9a22u3aUr9VW+s26nDL/o928g6BbgTSkjM1LHe0RvUZrZF5I7q+A56VktnNkWxCAAEEEEAAAbsLEMjtvoLUjwACthJo7GjSrvpd5uPtu7s+7r6ncadq26pt1QPFRk8gSR6VZg3WyL8F8BF5w1WSWaykpKToTcJICCCAAAIIIGBZAQK5ZZeGwhBAwC0CTR3N5qPue7W7frd2Hw//7VBNa5Vb2ndNn+Er3wOzy1WeM1RDsodoUPYg8+8y+ZJ9rjGgUQQQQAABBBD4uACB/OMe/AsBBBCwhEBroFX7GitUcbxCB5oOaH/TflU1V+i4v9YS9VHE6QUK0ktM6A4H73INyRmsQTmDVJReePqT2IsAAggggAACrhMgkLtuyWkYAQTsLNBsrqZXNR9UZWOlCermr3m/KpsqdKztsELml5/4CWR4s1WcOVClmaUqzRhgPnpeouKMYrOtP1e947cMzIQAAggggICtBQjktl4+ikcAAQQ+FPAHO3SktcZ81P2IqluqVdNiXk1Ir2mtNtsPmbu9N0AVoYBHycpNK1BBWqH5K1L/9GITvktUEg7e5nve3GgtQlAORwABBBBAAIGTBAjkJ5GwAQEEEHCeQFugzQTzozrSdsSE9RpzRb1W9f561bWb1/Y6875WjeZ90Py64SclyacsX655fnd+V9gOh+7CjHDw7mv+TAg3jxXL9fUxN1fzuIGDHhFAAAEEEEAgQQIE8gTBMy0CCCBgRYHwDeYa2utNQG8wQT38V6dGf5NaAi3mr7nrtdm8tpq/8MfnW4PNajPv/Z3tcW/Hm+Q1Hw1PV6o3XWmedKWb11Tz76yULOX4cpST0kd9Us2r1/yZ12xfdtf2bLM/zZsW93qZEAEEEEAAAQQQ+KQAgfyTIvwbAQQQQCBigWBn0ITzNvmD7Qp0BhQIBT98Ne+D4fchs8287wjv69oWUCgUksdcgfYkJZs/8wCw8Pvwr3kNX5lO7noNPxjMI58npStEh4N0qie16334OH4QQAABBBBAAAE7CxDI7bx61I4AAggggAACCCCAAAIIIGBbAQK5bZeOwhFAAAEEEEAAAQQQQAABBOwsQCC38+pROwIIIIAAAggggAACCCCAgG0FCOS2XToKRwABBBBAAAEEEEAAAQQQsLMAgdzOq0ftCCCAAAIIIIAAAggggAACthUgkNt26SgcAQQQQAABBBBAAAEEEEDAzgIEcjuvHrUjgAACCCCAAAIIIIAAAgjYVoBAbtulo3AEEEAAAQQQQAABBBBAAAE7C/w/JSWhW8n7YtcAAAAASUVORK5CYII=;" vertex="1" parent="1">
          <mxGeometry x="320" y="31.81" width="260" height="206.75" as="geometry" />
        </mxCell>
        <mxCell id="TJcAHb-V-maXnbrI-xuS-18" value="" style="edgeStyle=entityRelationEdgeStyle;fontSize=12;html=1;endArrow=ERoneToMany;rounded=0;exitX=0;exitY=0.5;exitDx=0;exitDy=0;entryX=1.025;entryY=0.2;entryDx=0;entryDy=0;entryPerimeter=0;strokeWidth=2;" edge="1" parent="1" source="TJcAHb-V-maXnbrI-xuS-2" target="TJcAHb-V-maXnbrI-xuS-10">
          <mxGeometry width="100" height="100" relative="1" as="geometry">
            <mxPoint x="210" y="330" as="sourcePoint" />
            <mxPoint x="310" y="230" as="targetPoint" />
          </mxGeometry>
        </mxCell>
        <mxCell id="TJcAHb-V-maXnbrI-xuS-19" value="" style="edgeStyle=entityRelationEdgeStyle;fontSize=12;html=1;endArrow=ERoneToMany;rounded=0;strokeWidth=2;" edge="1" parent="1">
          <mxGeometry width="100" height="100" relative="1" as="geometry">
            <mxPoint x="450" y="320" as="sourcePoint" />
            <mxPoint x="600" y="320" as="targetPoint" />
          </mxGeometry>
        </mxCell>
        <mxCell id="TJcAHb-V-maXnbrI-xuS-20" value="" style="edgeStyle=entityRelationEdgeStyle;fontSize=12;html=1;endArrow=ERoneToMany;rounded=0;exitX=0.5;exitY=1;exitDx=0;exitDy=0;strokeWidth=2;" edge="1" parent="1" source="TJcAHb-V-maXnbrI-xuS-1">
          <mxGeometry width="100" height="100" relative="1" as="geometry">
            <mxPoint x="656" y="350" as="sourcePoint" />
            <mxPoint x="440" y="510" as="targetPoint" />
            <Array as="points">
              <mxPoint x="706" y="360" />
              <mxPoint x="390" y="360" />
            </Array>
          </mxGeometry>
        </mxCell>
        <mxCell id="TJcAHb-V-maXnbrI-xuS-21" value="&lt;b&gt;Wheat = 57 Regions&lt;/b&gt;" style="swimlane;fontStyle=0;childLayout=stackLayout;horizontal=1;startSize=30;horizontalStack=0;resizeParent=1;resizeParentMax=0;resizeLast=0;collapsible=1;marginBottom=0;whiteSpace=wrap;html=1;" vertex="1" parent="1">
          <mxGeometry x="600" y="300" width="140" height="120" as="geometry" />
        </mxCell>
        <mxCell id="TJcAHb-V-maXnbrI-xuS-22" value="Afghanistan" style="text;strokeColor=#666666;fillColor=#f5f5f5;align=left;verticalAlign=middle;spacingLeft=4;spacingRight=4;overflow=hidden;points=[[0,0.5],[1,0.5]];portConstraint=eastwest;rotatable=0;whiteSpace=wrap;html=1;gradientColor=#b3b3b3;" vertex="1" parent="TJcAHb-V-maXnbrI-xuS-21">
          <mxGeometry y="30" width="140" height="30" as="geometry" />
        </mxCell>
        <mxCell id="TJcAHb-V-maXnbrI-xuS-23" value="Syrian Arab Republic" style="text;strokeColor=#82b366;fillColor=#d5e8d4;align=left;verticalAlign=middle;spacingLeft=4;spacingRight=4;overflow=hidden;points=[[0,0.5],[1,0.5]];portConstraint=eastwest;rotatable=0;whiteSpace=wrap;html=1;gradientColor=#97d077;" vertex="1" parent="TJcAHb-V-maXnbrI-xuS-21">
          <mxGeometry y="60" width="140" height="30" as="geometry" />
        </mxCell>
        <mxCell id="TJcAHb-V-maXnbrI-xuS-24" value="Yemen, Rep." style="text;strokeColor=#d6b656;fillColor=#fff2cc;align=left;verticalAlign=middle;spacingLeft=4;spacingRight=4;overflow=hidden;points=[[0,0.5],[1,0.5]];portConstraint=eastwest;rotatable=0;whiteSpace=wrap;html=1;gradientColor=#ffd966;" vertex="1" parent="TJcAHb-V-maXnbrI-xuS-21">
          <mxGeometry y="90" width="140" height="30" as="geometry" />
        </mxCell>
        <mxCell id="TJcAHb-V-maXnbrI-xuS-25" value="&lt;b&gt;Bread = 49 Regions&lt;/b&gt;" style="swimlane;fontStyle=0;childLayout=stackLayout;horizontal=1;startSize=30;horizontalStack=0;resizeParent=1;resizeParentMax=0;resizeLast=0;collapsible=1;marginBottom=0;whiteSpace=wrap;html=1;" vertex="1" parent="1">
          <mxGeometry x="440" y="500" width="140" height="120" as="geometry" />
        </mxCell>
        <mxCell id="TJcAHb-V-maXnbrI-xuS-26" value="Afghanistan" style="text;strokeColor=#82b366;fillColor=#d5e8d4;align=left;verticalAlign=middle;spacingLeft=4;spacingRight=4;overflow=hidden;points=[[0,0.5],[1,0.5]];portConstraint=eastwest;rotatable=0;whiteSpace=wrap;html=1;gradientColor=#97d077;" vertex="1" parent="TJcAHb-V-maXnbrI-xuS-25">
          <mxGeometry y="30" width="140" height="30" as="geometry" />
        </mxCell>
        <mxCell id="TJcAHb-V-maXnbrI-xuS-27" value="Syrian Arab Republic" style="text;strokeColor=#d6b656;fillColor=#fff2cc;align=left;verticalAlign=middle;spacingLeft=4;spacingRight=4;overflow=hidden;points=[[0,0.5],[1,0.5]];portConstraint=eastwest;rotatable=0;whiteSpace=wrap;html=1;gradientColor=#ffd966;" vertex="1" parent="TJcAHb-V-maXnbrI-xuS-25">
          <mxGeometry y="60" width="140" height="30" as="geometry" />
        </mxCell>
        <mxCell id="TJcAHb-V-maXnbrI-xuS-28" value="Yemen, Rep." style="text;strokeColor=#82b366;fillColor=#d5e8d4;align=left;verticalAlign=middle;spacingLeft=4;spacingRight=4;overflow=hidden;points=[[0,0.5],[1,0.5]];portConstraint=eastwest;rotatable=0;whiteSpace=wrap;html=1;gradientColor=#97d077;" vertex="1" parent="TJcAHb-V-maXnbrI-xuS-25">
          <mxGeometry y="90" width="140" height="30" as="geometry" />
        </mxCell>
      </root>
    </mxGraphModel>
  </diagram>
</mxfile>
